<svg xmlns="http://www.w3.org/2000/svg" xmlns:xlink="http://www.w3.org/1999/xlink" contentStyleType="text/css" data-diagram-type="DESCRIPTION" height="437px" preserveAspectRatio="none" style="width:845px;height:437px;background:#FFFFFF;" version="1.1" viewBox="0 0 845 437" width="845px" zoomAndPan="magnify"><defs/><g><!--cluster ????? ?????? ?????--><g class="cluster" data-entity="..... ...... ....." data-source-line="5" data-uid="ent0003" id="cluster_..... ...... ....."><rect fill="none" height="424" rx="2.5" ry="2.5" style="stroke:#181818;stroke-width:1;" width="683.64" x="156.1" y="7"/><text fill="#000000" font-family="sans-serif" font-size="14" font-weight="bold" lengthAdjust="spacing" textLength="167.2754" x="414.2823" y="21.9951">&#1059;&#1084;&#1085;&#1099;&#1081; &#1089;&#1087;&#1080;&#1089;&#1086;&#1082; &#1079;&#1072;&#1076;&#1072;&#1095;</text></g><!--entity AddTask--><g class="entity" data-entity="AddTask" data-source-line="7" data-uid="ent0004" id="entity_AddTask"><ellipse cx="308.3054" cy="66.0031" fill="#F1F1F1" rx="108.0154" ry="24.0031" style="stroke:#181818;stroke-width:0.5;"/><text fill="#000000" font-family="sans-serif" font-size="14" lengthAdjust="spacing" textLength="193.5801" x="211.5154" y="70.6515">&#1044;&#1086;&#1073;&#1072;&#1074;&#1083;&#1077;&#1085;&#1080;&#1077; &#1085;&#1086;&#1074;&#1086;&#1081; &#1079;&#1072;&#1076;&#1072;&#1095;&#1080;</text></g><!--entity CompleteTask--><g class="entity" data-entity="CompleteTask" data-source-line="8" data-uid="ent0005" id="entity_CompleteTask"><ellipse cx="308.3138" cy="155.0028" fill="#F1F1F1" rx="136.2138" ry="29.6428" style="stroke:#181818;stroke-width:0.5;"/><text fill="#000000" font-family="sans-serif" font-size="14" lengthAdjust="spacing" textLength="253.6611" x="181.4832" y="159.6512">&#1055;&#1086;&#1084;&#1077;&#1090;&#1082;&#1072; &#1079;&#1072;&#1076;&#1072;&#1095;&#1080; &#1082;&#1072;&#1082; &#1074;&#1099;&#1087;&#1086;&#1083;&#1085;&#1077;&#1085;&#1085;&#1086;&#1081;</text></g><!--entity EditTask--><g class="entity" data-entity="EditTask" data-source-line="9" data-uid="ent0006" id="entity_EditTask"><ellipse cx="308.307" cy="242.0014" fill="#F1F1F1" rx="101.007" ry="22.6014" style="stroke:#181818;stroke-width:0.5;"/><text fill="#000000" font-family="sans-serif" font-size="14" lengthAdjust="spacing" textLength="178.2744" x="219.1698" y="246.6498">&#1056;&#1077;&#1076;&#1072;&#1082;&#1090;&#1080;&#1088;&#1086;&#1074;&#1072;&#1085;&#1080;&#1077; &#1079;&#1072;&#1076;&#1072;&#1095;&#1080;</text></g><!--entity DeleteTask--><g class="entity" data-entity="DeleteTask" data-source-line="10" data-uid="ent0007" id="entity_DeleteTask"><ellipse cx="308.3109" cy="317.9962" fill="#F1F1F1" rx="78.5809" ry="18.1162" style="stroke:#181818;stroke-width:0.5;"/><text fill="#000000" font-family="sans-serif" font-size="14" lengthAdjust="spacing" textLength="127.3193" x="244.6513" y="322.6446">&#1059;&#1076;&#1072;&#1083;&#1077;&#1085;&#1080;&#1077; &#1079;&#1072;&#1076;&#1072;&#1095;&#1080;</text></g><!--entity ViewTasks--><g class="entity" data-entity="ViewTasks" data-source-line="11" data-uid="ent0008" id="entity_ViewTasks"><ellipse cx="308.3089" cy="393.0018" fill="#F1F1F1" rx="99.0589" ry="22.2118" style="stroke:#181818;stroke-width:0.5;"/><text fill="#000000" font-family="sans-serif" font-size="14" lengthAdjust="spacing" textLength="173.9814" x="221.3182" y="397.6502">&#1055;&#1088;&#1086;&#1089;&#1084;&#1086;&#1090;&#1088; &#1089;&#1087;&#1080;&#1089;&#1082;&#1072; &#1079;&#1072;&#1076;&#1072;&#1095;</text></g><!--entity FilterTasks--><g class="entity" data-entity="FilterTasks" data-source-line="12" data-uid="ent0009" id="entity_FilterTasks"><ellipse cx="688.6379" cy="386.0016" fill="#F1F1F1" rx="135.1079" ry="29.4216" style="stroke:#181818;stroke-width:0.5;"/><text fill="#000000" font-family="sans-serif" font-size="14" lengthAdjust="spacing" textLength="251.3369" x="562.9694" y="390.65">&#1060;&#1080;&#1083;&#1100;&#1090;&#1088;&#1072;&#1094;&#1080;&#1103; &#1079;&#1072;&#1076;&#1072;&#1095; &#1087;&#1086; &#1082;&#1072;&#1090;&#1077;&#1075;&#1086;&#1088;&#1080;&#1103;&#1084;</text></g><!--entity AutoSave--><g class="entity" data-entity="AutoSave" data-source-line="13" data-uid="ent0010" id="entity_AutoSave"><ellipse cx="688.6382" cy="157.9976" fill="#F1F1F1" rx="113.9882" ry="25.1976" style="stroke:#181818;stroke-width:0.5;"/><text fill="#000000" font-family="sans-serif" font-size="14" lengthAdjust="spacing" textLength="206.4795" x="585.3984" y="162.6461">&#1040;&#1074;&#1090;&#1086;&#1089;&#1086;&#1093;&#1088;&#1072;&#1085;&#1077;&#1085;&#1080;&#1077; &#1080;&#1079;&#1084;&#1077;&#1085;&#1077;&#1085;&#1080;&#1081;</text></g><!--entity ValidateData--><g class="entity" data-entity="ValidateData" data-source-line="14" data-uid="ent0011" id="entity_ValidateData"><ellipse cx="688.643" cy="72.0026" fill="#F1F1F1" rx="84.813" ry="19.3626" style="stroke:#181818;stroke-width:0.5;"/><text fill="#000000" font-family="sans-serif" font-size="14" lengthAdjust="spacing" textLength="141.8936" x="617.6962" y="76.651">&#1042;&#1072;&#1083;&#1080;&#1076;&#1072;&#1094;&#1080;&#1103; &#1076;&#1072;&#1085;&#1085;&#1099;&#1093;</text></g><!--entity SearchTasks--><g class="entity" data-entity="SearchTasks" data-source-line="15" data-uid="ent0012" id="entity_SearchTasks"><ellipse cx="688.6351" cy="306.001" fill="#F1F1F1" rx="64.2051" ry="15.241" style="stroke:#181818;stroke-width:0.5;"/><text fill="#000000" font-family="sans-serif" font-size="14" lengthAdjust="spacing" textLength="91.3486" x="642.9608" y="310.6495">&#1055;&#1086;&#1080;&#1089;&#1082; &#1079;&#1072;&#1076;&#1072;&#1095;</text></g><!--entity SortTasks--><g class="entity" data-entity="SortTasks" data-source-line="16" data-uid="ent0013" id="entity_SortTasks"><ellipse cx="688.6406" cy="237.0021" fill="#F1F1F1" rx="81.5106" ry="18.7021" style="stroke:#181818;stroke-width:0.5;"/><text fill="#000000" font-family="sans-serif" font-size="14" lengthAdjust="spacing" textLength="134.2236" x="621.5288" y="241.6506">&#1057;&#1086;&#1088;&#1090;&#1080;&#1088;&#1086;&#1074;&#1082;&#1072; &#1079;&#1072;&#1076;&#1072;&#1095;</text></g><!--entity User--><g class="entity" data-entity="User" data-source-line="3" data-uid="ent0002" id="entity_User"><ellipse cx="57.5498" cy="212.35" fill="#F1F1F1" rx="8" ry="8" style="stroke:#181818;stroke-width:0.5;"/><path d="M57.5498,220.35 L57.5498,247.35 M44.5498,228.35 L70.5498,228.35 M57.5498,247.35 L44.5498,262.35 M57.5498,247.35 L70.5498,262.35" fill="none" style="stroke:#181818;stroke-width:0.5;"/><text fill="#000000" font-family="sans-serif" font-size="14" lengthAdjust="spacing" textLength="103.0996" x="6" y="276.8451">&#1055;&#1086;&#1083;&#1100;&#1079;&#1086;&#1074;&#1072;&#1090;&#1077;&#1083;&#1100;</text></g><!--link AddTask to ValidateData--><g class="link" data-entity-1="AddTask" data-entity-2="ValidateData" data-source-line="20" data-uid="lnk14" id="link_AddTask_ValidateData"><path d="M416.46,67.7 C475.78,68.64 542.4408,69.6943 597.6108,70.5743" fill="none" id="AddTask-to-ValidateData" style="stroke:#181818;stroke-width:1;"/><polygon fill="#181818" points="603.61,70.67,594.6749,66.527,598.6106,70.5903,594.5474,74.526,603.61,70.67" style="stroke:#181818;stroke-width:1;"/><text fill="#000000" font-family="sans-serif" font-size="13" lengthAdjust="spacing" textLength="47.0996" x="475.53" y="65.0669">include</text></g><!--link EditTask to ValidateData--><g class="link" data-entity-1="EditTask" data-entity-2="ValidateData" data-source-line="21" data-uid="lnk15" id="link_EditTask_ValidateData"><path d="M385.3,227.13 C405.47,221.19 426.61,213.05 444.53,202 C461.12,191.77 459.78,182.75 474.53,170 C506.89,142.02 515.18,133.96 553.53,115 C577.64,103.08 600.0309,95.1431 624.2909,88.0531" fill="none" id="EditTask-to-ValidateData" style="stroke:#181818;stroke-width:1;"/><polygon fill="#181818" points="630.05,86.37,620.2893,85.0553,625.2508,87.7726,622.5334,92.734,630.05,86.37" style="stroke:#181818;stroke-width:1;"/><text fill="#000000" font-family="sans-serif" font-size="13" lengthAdjust="spacing" textLength="47.0996" x="475.53" y="128.0669">include</text></g><!--link EditTask to AutoSave--><g class="link" data-entity-1="EditTask" data-entity-2="AutoSave" data-source-line="22" data-uid="lnk16" id="link_EditTask_AutoSave"><path d="M381.36,226 C445.79,211.7 534.2327,192.0607 601.1527,177.2007" fill="none" id="EditTask-to-AutoSave" style="stroke:#181818;stroke-width:1;"/><polygon fill="#181818" points="607.01,175.9,597.3569,173.9461,602.1289,176.9839,599.0911,181.7559,607.01,175.9" style="stroke:#181818;stroke-width:1;"/><text fill="#000000" font-family="sans-serif" font-size="13" lengthAdjust="spacing" textLength="47.0996" x="475.53" y="191.0669">include</text></g><!--reverse link ViewTasks to FilterTasks--><g class="link" data-entity-1="ViewTasks" data-entity-2="FilterTasks" data-source-line="25" data-uid="lnk17" id="link_ViewTasks_FilterTasks"><path d="M413.229,391.0785 C457.899,390.2485 505.48,389.37 553.79,388.48" fill="none" id="ViewTasks-backto-FilterTasks" style="stroke:#181818;stroke-width:1;"/><polygon fill="#181818" points="407.23,391.19,416.3028,395.0221,412.2291,391.0971,416.1541,387.0235,407.23,391.19" style="stroke:#181818;stroke-width:1;"/><text fill="#000000" font-family="sans-serif" font-size="13" lengthAdjust="spacing" textLength="45.2778" x="476.53" y="386.0669">extend</text></g><!--reverse link ViewTasks to SearchTasks--><g class="link" data-entity-1="ViewTasks" data-entity-2="SearchTasks" data-source-line="26" data-uid="lnk18" id="link_ViewTasks_SearchTasks"><path d="M384.5474,375.6955 C460.9174,358.1355 575.68,331.75 641.33,316.65" fill="none" id="ViewTasks-backto-SearchTasks" style="stroke:#181818;stroke-width:1;"/><polygon fill="#181818" points="378.7,377.04,388.3675,378.9215,383.5728,375.9196,386.5748,371.1249,378.7,377.04" style="stroke:#181818;stroke-width:1;"/><text fill="#000000" font-family="sans-serif" font-size="13" lengthAdjust="spacing" textLength="45.2778" x="476.53" y="341.0669">extend</text></g><!--reverse link ViewTasks to SortTasks--><g class="link" data-entity-1="ViewTasks" data-entity-2="SortTasks" data-source-line="27" data-uid="lnk19" id="link_ViewTasks_SortTasks"><path d="M391.984,377.2438 C411.944,371.4738 426.98,365.11 444.53,354 C461.56,343.22 459.01,332.86 474.53,320 C505.98,293.92 515.89,288.89 553.53,273 C576.85,263.16 603.6,255.33 627.04,249.52" fill="none" id="ViewTasks-backto-SortTasks" style="stroke:#181818;stroke-width:1;"/><polygon fill="#181818" points="386.22,378.91,395.9768,380.2533,391.0233,377.5215,393.7552,372.568,386.22,378.91" style="stroke:#181818;stroke-width:1;"/><text fill="#000000" font-family="sans-serif" font-size="13" lengthAdjust="spacing" textLength="45.2778" x="476.53" y="283.0669">extend</text></g><!--link User to AddTask--><g class="link" data-entity-1="User" data-entity-2="AddTask" data-source-line="30" data-uid="lnk20" id="link_User_AddTask"><path d="M74.92,203.42 C89.73,173.08 114.39,132.05 148.1,108 C167.76,93.97 185.9918,86.1632 209.3618,79.9432" fill="none" id="User-to-AddTask" style="stroke:#181818;stroke-width:1;"/><polygon fill="#181818" points="215.16,78.4,205.434,76.8494,210.3282,79.686,207.4916,84.5802,215.16,78.4" style="stroke:#181818;stroke-width:1;"/></g><!--link User to CompleteTask--><g class="link" data-entity-1="User" data-entity-2="CompleteTask" data-source-line="31" data-uid="lnk21" id="link_User_CompleteTask"><path d="M109.21,217.97 C121.78,212.39 135.32,206.72 148.1,202 C171.49,193.37 191.494,186.8935 215.354,179.8735" fill="none" id="User-to-CompleteTask" style="stroke:#181818;stroke-width:1;"/><polygon fill="#181818" points="221.11,178.18,211.3469,176.8829,216.3133,179.5913,213.605,184.5576,221.11,178.18" style="stroke:#181818;stroke-width:1;"/></g><!--link User to EditTask--><g class="link" data-entity-1="User" data-entity-2="EditTask" data-source-line="32" data-uid="lnk22" id="link_User_EditTask"><path d="M109.49,242 C137.57,242 167.42,242 200.87,242" fill="none" id="User-to-EditTask" style="stroke:#181818;stroke-width:1;"/><polygon fill="#181818" points="206.87,242,197.87,238,201.87,242,197.87,246,206.87,242" style="stroke:#181818;stroke-width:1;"/></g><!--link User to DeleteTask--><g class="link" data-entity-1="User" data-entity-2="DeleteTask" data-source-line="33" data-uid="lnk23" id="link_User_DeleteTask"><path d="M109.47,266.83 C121.92,272.32 135.34,277.75 148.1,282 C179.56,292.47 209.6401,299.6955 239.4201,305.7455" fill="none" id="User-to-DeleteTask" style="stroke:#181818;stroke-width:1;"/><polygon fill="#181818" points="245.3,306.94,237.2765,301.2283,240.4001,305.9446,235.6838,309.0681,245.3,306.94" style="stroke:#181818;stroke-width:1;"/></g><!--link User to ViewTasks--><g class="link" data-entity-1="User" data-entity-2="ViewTasks" data-source-line="34" data-uid="lnk24" id="link_User_ViewTasks"><path d="M80.15,280.47 C95.9,305.08 119.46,335.71 148.1,354 C169.69,367.78 189.926,375.3405 214.686,381.1005" fill="none" id="User-to-ViewTasks" style="stroke:#181818;stroke-width:1;"/><polygon fill="#181818" points="220.53,382.46,212.6704,376.5248,215.66,381.3271,210.8577,384.3167,220.53,382.46" style="stroke:#181818;stroke-width:1;"/></g><!--SRC=[ZLJDIiD04BxlKmozUEeBY0Z5wWjKlI_9MeCnaMIhWWYre1uK5F6keWzGQqjJZVKL9c_apEQdQOXW3WcPpFSpt-x6LNiQj0-1qztNO3k1ihJZUq98I_i1DF09v_YLtEAKdYCS9WESy7i3P0WxeGg4O8ZqkgwYxbUCyJkvmHaa5_Y34Ttd-0c47kAOqDSDE1C2wEg5of8XOnwfvPs-Z_2BkBynmWdGW-NcHBJ0OcHKMxQzBSE32WlxZ752_Zvnk0G2hh294HdxuN68dOLOOsOeD_p38rTfLSFxJArZnXDpbFJJ57ANLMkRjgDhE5uDGscwAgwj_b1_OaKACQRx8EalKbqUqf3iEkg4AS8Annjfqeenddgl27vNWW97OY8oI_j1GdrkmTYGRZckLa4TxJtbEJ3cviabKsUfcW4Z4eZDQrfAOsxrjD-Hnwh2z632YOoVpDxOqD5EIYxJsQJhs5AhjjIoPk5D8jKyEae6rdwTzHSUihIUDM5s_42dq7CXLi3nBBTdAyv_HDbCCHBPDeHcStt97gpctIBV3l_koGCgVITnTQgLPvUrYwM6jMQpl4O4JBihBQKi_cp99ruqa7RB_0Oit_FI7qCe-D2dPhDpM1IMJb5HBSv4KIdjzg9MUFa5]--></g></svg>