<svg xmlns="http://www.w3.org/2000/svg" xmlns:xlink="http://www.w3.org/1999/xlink" contentStyleType="text/css" data-diagram-type="SEQUENCE" height="1879px" preserveAspectRatio="none" style="width:1337px;height:1879px;background:#FFFFFF;" version="1.1" viewBox="0 0 1337 1879" width="1337px" zoomAndPan="magnify"><defs/><g><g><title>............</title><rect fill="#FFFFFF" height="240.1953" style="stroke:#181818;stroke-width:1;" width="10" x="54.5498" y="155.5625"/></g><g><title>............</title><rect fill="#FFFFFF" height="363.2656" style="stroke:#181818;stroke-width:1;" width="10" x="54.5498" y="475.0234"/></g><g><title>............</title><rect fill="#FFFFFF" height="392.7266" style="stroke:#181818;stroke-width:1;" width="10" x="54.5498" y="910.5547"/></g><g><title>............</title><rect fill="#FFFFFF" height="261.1953" style="stroke:#181818;stroke-width:1;" width="10" x="54.5498" y="1375.5469"/></g><g><title>UI</title><rect fill="#FFFFFF" height="240.1953" style="stroke:#181818;stroke-width:1;" width="10" x="412.3945" y="155.5625"/></g><g><title>UI</title><rect fill="#FFFFFF" height="363.2656" style="stroke:#181818;stroke-width:1;" width="10" x="412.3945" y="475.0234"/></g><g><title>UI</title><rect fill="#FFFFFF" height="392.7266" style="stroke:#181818;stroke-width:1;" width="10" x="412.3945" y="910.5547"/></g><g><title>UI</title><rect fill="#FFFFFF" height="261.1953" style="stroke:#181818;stroke-width:1;" width="10" x="412.3945" y="1375.5469"/></g><g><title>..........</title><rect fill="#FFFFFF" height="160.7969" style="stroke:#181818;stroke-width:1;" width="10" x="722.6719" y="184.6953"/></g><g><title>..........</title><rect fill="#FFFFFF" height="262.8672" style="stroke:#181818;stroke-width:1;" width="10" x="722.6719" y="504.1563"/></g><g><title>..........</title><rect fill="#FFFFFF" height="277.1953" style="stroke:#181818;stroke-width:1;" width="10" x="722.6719" y="939.6875"/></g><g><title>..........</title><rect fill="#FFFFFF" height="145.6641" style="stroke:#181818;stroke-width:1;" width="10" x="722.6719" y="1404.6797"/></g><g><title>...... .....</title><rect fill="#FFFFFF" height="87.3984" style="stroke:#181818;stroke-width:1;" width="10" x="935.5552" y="213.8281"/></g><g><title>...... .....</title><rect fill="#FFFFFF" height="212.6016" style="stroke:#181818;stroke-width:1;" width="10" x="935.5552" y="533.2891"/></g><g><title>...... .....</title><rect fill="#FFFFFF" height="218.9297" style="stroke:#181818;stroke-width:1;" width="10" x="935.5552" y="968.8203"/></g><g><title>...... .....</title><rect fill="#FFFFFF" height="87.3984" style="stroke:#181818;stroke-width:1;" width="10" x="935.5552" y="1433.8125"/></g><g><title>.... ......</title><rect fill="#FFFFFF" height="29.1328" style="stroke:#181818;stroke-width:1;" width="10" x="1251.2612" y="242.9609"/></g><g><title>.... ......</title><rect fill="#FFFFFF" height="29.1328" style="stroke:#181818;stroke-width:1;" width="10" x="1251.2612" y="628.6875"/></g><g><title>.... ......</title><rect fill="#FFFFFF" height="29.1328" style="stroke:#181818;stroke-width:1;" width="10" x="1251.2612" y="997.9531"/></g><g><title>.... ......</title><rect fill="#FFFFFF" height="29.1328" style="stroke:#181818;stroke-width:1;" width="10" x="1251.2612" y="1462.9453"/></g><rect fill="none" height="148.4688" style="stroke:#000000;stroke-width:1.5;" width="654.2012" x="666.3408" y="590.4219"/><rect fill="none" height="75.3984" style="stroke:#000000;stroke-width:1.5;" width="328.0884" x="873.8921" y="1084.2188"/><g><title>............</title><rect fill="#000000" fill-opacity="0.00000" height="1716.9766" width="8" x="55.5498" y="81.2969"/><line style="stroke:#181818;stroke-width:0.5;stroke-dasharray:5,5;" x1="59" x2="59" y1="81.2969" y2="1798.2734"/></g><g><title>UI</title><rect fill="#000000" fill-opacity="0.00000" height="1716.9766" width="8" x="413.3945" y="81.2969"/><line style="stroke:#181818;stroke-width:0.5;stroke-dasharray:5,5;" x1="417.2065" x2="417.2065" y1="81.2969" y2="1798.2734"/></g><g><title>..........</title><rect fill="#000000" fill-opacity="0.00000" height="1716.9766" width="8" x="723.6719" y="81.2969"/><line style="stroke:#181818;stroke-width:0.5;stroke-dasharray:5,5;" x1="727.3408" x2="727.3408" y1="81.2969" y2="1798.2734"/></g><g><title>...... .....</title><rect fill="#000000" fill-opacity="0.00000" height="1716.9766" width="8" x="936.5552" y="81.2969"/><line style="stroke:#181818;stroke-width:0.5;stroke-dasharray:5,5;" x1="939.8921" x2="939.8921" y1="81.2969" y2="1798.2734"/></g><g><title>...... .........</title><rect fill="#000000" fill-opacity="0.00000" height="1716.9766" width="8" x="1114.1899" y="81.2969"/><line style="stroke:#181818;stroke-width:0.5;stroke-dasharray:5,5;" x1="1117.3994" x2="1117.3994" y1="81.2969" y2="1798.2734"/></g><g><title>.... ......</title><rect fill="#000000" fill-opacity="0.00000" height="1716.9766" width="8" x="1252.2612" y="81.2969"/><line style="stroke:#181818;stroke-width:0.5;stroke-dasharray:5,5;" x1="1255.9805" x2="1255.9805" y1="81.2969" y2="1798.2734"/></g><g class="participant participant-head" data-participant="User"><text fill="#000000" font-family="sans-serif" font-size="14" lengthAdjust="spacing" textLength="103.0996" x="5" y="77.9951">&#1055;&#1086;&#1083;&#1100;&#1079;&#1086;&#1074;&#1072;&#1090;&#1077;&#1083;&#1100;</text><ellipse cx="59.5498" cy="13.5" fill="#E2E2F0" rx="8" ry="8" style="stroke:#181818;stroke-width:0.5;"/><path d="M59.5498,21.5 L59.5498,48.5 M46.5498,29.5 L72.5498,29.5 M59.5498,48.5 L46.5498,63.5 M59.5498,48.5 L72.5498,63.5" fill="none" style="stroke:#181818;stroke-width:0.5;"/></g><g class="participant participant-tail" data-participant="User"><text fill="#000000" font-family="sans-serif" font-size="14" lengthAdjust="spacing" textLength="103.0996" x="5" y="1810.2686">&#1055;&#1086;&#1083;&#1100;&#1079;&#1086;&#1074;&#1072;&#1090;&#1077;&#1083;&#1100;</text><ellipse cx="59.5498" cy="1822.0703" fill="#E2E2F0" rx="8" ry="8" style="stroke:#181818;stroke-width:0.5;"/><path d="M59.5498,1830.0703 L59.5498,1857.0703 M46.5498,1838.0703 L72.5498,1838.0703 M59.5498,1857.0703 L46.5498,1872.0703 M59.5498,1857.0703 L72.5498,1872.0703" fill="none" style="stroke:#181818;stroke-width:0.5;"/></g><g class="participant participant-head" data-participant="UI"><rect fill="#E2E2F0" height="30.2969" rx="2.5" ry="2.5" style="stroke:#181818;stroke-width:0.5;" width="28.376" x="403.2065" y="50"/><text fill="#000000" font-family="sans-serif" font-size="14" lengthAdjust="spacing" textLength="14.376" x="410.2065" y="69.9951">UI</text></g><g class="participant participant-tail" data-participant="UI"><rect fill="#E2E2F0" height="30.2969" rx="2.5" ry="2.5" style="stroke:#181818;stroke-width:0.5;" width="28.376" x="403.2065" y="1797.2734"/><text fill="#000000" font-family="sans-serif" font-size="14" lengthAdjust="spacing" textLength="14.376" x="410.2065" y="1817.2686">UI</text></g><g class="participant participant-head" data-participant="Controller"><rect fill="#E2E2F0" height="30.2969" rx="2.5" ry="2.5" style="stroke:#181818;stroke-width:0.5;" width="102.6621" x="676.3408" y="50"/><text fill="#000000" font-family="sans-serif" font-size="14" lengthAdjust="spacing" textLength="88.6621" x="683.3408" y="69.9951">&#1050;&#1086;&#1085;&#1090;&#1088;&#1086;&#1083;&#1083;&#1077;&#1088;</text></g><g class="participant participant-tail" data-participant="Controller"><rect fill="#E2E2F0" height="30.2969" rx="2.5" ry="2.5" style="stroke:#181818;stroke-width:0.5;" width="102.6621" x="676.3408" y="1797.2734"/><text fill="#000000" font-family="sans-serif" font-size="14" lengthAdjust="spacing" textLength="88.6621" x="683.3408" y="1817.2686">&#1050;&#1086;&#1085;&#1090;&#1088;&#1086;&#1083;&#1083;&#1077;&#1088;</text></g><g class="participant participant-head" data-participant="TaskService"><rect fill="#E2E2F0" height="30.2969" rx="2.5" ry="2.5" style="stroke:#181818;stroke-width:0.5;" width="113.3262" x="883.8921" y="50"/><text fill="#000000" font-family="sans-serif" font-size="14" lengthAdjust="spacing" textLength="99.3262" x="890.8921" y="69.9951">&#1057;&#1077;&#1088;&#1074;&#1080;&#1089; &#1079;&#1072;&#1076;&#1072;&#1095;</text></g><g class="participant participant-tail" data-participant="TaskService"><rect fill="#E2E2F0" height="30.2969" rx="2.5" ry="2.5" style="stroke:#181818;stroke-width:0.5;" width="113.3262" x="883.8921" y="1797.2734"/><text fill="#000000" font-family="sans-serif" font-size="14" lengthAdjust="spacing" textLength="99.3262" x="890.8921" y="1817.2686">&#1057;&#1077;&#1088;&#1074;&#1080;&#1089; &#1079;&#1072;&#1076;&#1072;&#1095;</text></g><g class="participant participant-head" data-participant="CategoryService"><rect fill="#E2E2F0" height="30.2969" rx="2.5" ry="2.5" style="stroke:#181818;stroke-width:0.5;" width="147.5811" x="1044.3994" y="50"/><text fill="#000000" font-family="sans-serif" font-size="14" lengthAdjust="spacing" textLength="133.5811" x="1051.3994" y="69.9951">&#1057;&#1077;&#1088;&#1074;&#1080;&#1089; &#1082;&#1072;&#1090;&#1077;&#1075;&#1086;&#1088;&#1080;&#1081;</text></g><g class="participant participant-tail" data-participant="CategoryService"><rect fill="#E2E2F0" height="30.2969" rx="2.5" ry="2.5" style="stroke:#181818;stroke-width:0.5;" width="147.5811" x="1044.3994" y="1797.2734"/><text fill="#000000" font-family="sans-serif" font-size="14" lengthAdjust="spacing" textLength="133.5811" x="1051.3994" y="1817.2686">&#1057;&#1077;&#1088;&#1074;&#1080;&#1089; &#1082;&#1072;&#1090;&#1077;&#1075;&#1086;&#1088;&#1080;&#1081;</text></g><g class="participant participant-head" data-participant="DB"><rect fill="#E2E2F0" height="30.2969" rx="2.5" ry="2.5" style="stroke:#181818;stroke-width:0.5;" width="108.5615" x="1201.9805" y="50"/><text fill="#000000" font-family="sans-serif" font-size="14" lengthAdjust="spacing" textLength="94.5615" x="1208.9805" y="69.9951">&#1041;&#1072;&#1079;&#1072; &#1076;&#1072;&#1085;&#1085;&#1099;&#1093;</text></g><g class="participant participant-tail" data-participant="DB"><rect fill="#E2E2F0" height="30.2969" rx="2.5" ry="2.5" style="stroke:#181818;stroke-width:0.5;" width="108.5615" x="1201.9805" y="1797.2734"/><text fill="#000000" font-family="sans-serif" font-size="14" lengthAdjust="spacing" textLength="94.5615" x="1208.9805" y="1817.2686">&#1041;&#1072;&#1079;&#1072; &#1076;&#1072;&#1085;&#1085;&#1099;&#1093;</text></g><g><title>............</title><rect fill="#FFFFFF" height="240.1953" style="stroke:#181818;stroke-width:1;" width="10" x="54.5498" y="155.5625"/></g><g><title>............</title><rect fill="#FFFFFF" height="363.2656" style="stroke:#181818;stroke-width:1;" width="10" x="54.5498" y="475.0234"/></g><g><title>............</title><rect fill="#FFFFFF" height="392.7266" style="stroke:#181818;stroke-width:1;" width="10" x="54.5498" y="910.5547"/></g><g><title>............</title><rect fill="#FFFFFF" height="261.1953" style="stroke:#181818;stroke-width:1;" width="10" x="54.5498" y="1375.5469"/></g><g><title>UI</title><rect fill="#FFFFFF" height="240.1953" style="stroke:#181818;stroke-width:1;" width="10" x="412.3945" y="155.5625"/></g><g><title>UI</title><rect fill="#FFFFFF" height="363.2656" style="stroke:#181818;stroke-width:1;" width="10" x="412.3945" y="475.0234"/></g><g><title>UI</title><rect fill="#FFFFFF" height="392.7266" style="stroke:#181818;stroke-width:1;" width="10" x="412.3945" y="910.5547"/></g><g><title>UI</title><rect fill="#FFFFFF" height="261.1953" style="stroke:#181818;stroke-width:1;" width="10" x="412.3945" y="1375.5469"/></g><g><title>..........</title><rect fill="#FFFFFF" height="160.7969" style="stroke:#181818;stroke-width:1;" width="10" x="722.6719" y="184.6953"/></g><g><title>..........</title><rect fill="#FFFFFF" height="262.8672" style="stroke:#181818;stroke-width:1;" width="10" x="722.6719" y="504.1563"/></g><g><title>..........</title><rect fill="#FFFFFF" height="277.1953" style="stroke:#181818;stroke-width:1;" width="10" x="722.6719" y="939.6875"/></g><g><title>..........</title><rect fill="#FFFFFF" height="145.6641" style="stroke:#181818;stroke-width:1;" width="10" x="722.6719" y="1404.6797"/></g><g><title>...... .....</title><rect fill="#FFFFFF" height="87.3984" style="stroke:#181818;stroke-width:1;" width="10" x="935.5552" y="213.8281"/></g><g><title>...... .....</title><rect fill="#FFFFFF" height="212.6016" style="stroke:#181818;stroke-width:1;" width="10" x="935.5552" y="533.2891"/></g><g><title>...... .....</title><rect fill="#FFFFFF" height="218.9297" style="stroke:#181818;stroke-width:1;" width="10" x="935.5552" y="968.8203"/></g><g><title>...... .....</title><rect fill="#FFFFFF" height="87.3984" style="stroke:#181818;stroke-width:1;" width="10" x="935.5552" y="1433.8125"/></g><g><title>.... ......</title><rect fill="#FFFFFF" height="29.1328" style="stroke:#181818;stroke-width:1;" width="10" x="1251.2612" y="242.9609"/></g><g><title>.... ......</title><rect fill="#FFFFFF" height="29.1328" style="stroke:#181818;stroke-width:1;" width="10" x="1251.2612" y="628.6875"/></g><g><title>.... ......</title><rect fill="#FFFFFF" height="29.1328" style="stroke:#181818;stroke-width:1;" width="10" x="1251.2612" y="997.9531"/></g><g><title>.... ......</title><rect fill="#FFFFFF" height="29.1328" style="stroke:#181818;stroke-width:1;" width="10" x="1251.2612" y="1462.9453"/></g><rect fill="#EEEEEE" height="3" style="stroke:#EEEEEE;stroke-width:1;" width="1330.542" x="0" y="111.8633"/><line style="stroke:#000000;stroke-width:1;" x1="0" x2="1330.542" y1="111.8633" y2="111.8633"/><line style="stroke:#000000;stroke-width:1;" x1="0" x2="1330.542" y1="114.8633" y2="114.8633"/><rect fill="#EEEEEE" height="23.1328" style="stroke:#000000;stroke-width:2;" width="145.2251" x="592.6584" y="101.2969"/><text fill="#000000" font-family="sans-serif" font-size="13" font-weight="bold" lengthAdjust="spacing" textLength="126.6992" x="598.6584" y="117.3638">&#1059;&#1090;&#1088;&#1077;&#1085;&#1085;&#1080;&#1081; &#1079;&#1072;&#1087;&#1091;&#1089;&#1082;</text><g class="message" data-participant-1="User" data-participant-2="UI"><polygon fill="#181818" points="400.3945,151.5625,410.3945,155.5625,400.3945,159.5625,404.3945,155.5625" style="stroke:#181818;stroke-width:1;"/><line style="stroke:#181818;stroke-width:1;" x1="64.5498" x2="406.3945" y1="155.5625" y2="155.5625"/><text fill="#000000" font-family="sans-serif" font-size="13" lengthAdjust="spacing" textLength="165.623" x="71.5498" y="150.4966">&#1054;&#1090;&#1082;&#1088;&#1099;&#1074;&#1072;&#1077;&#1090; &#1087;&#1088;&#1080;&#1083;&#1086;&#1078;&#1077;&#1085;&#1080;&#1077;</text></g><g class="message" data-participant-1="UI" data-participant-2="Controller"><polygon fill="#181818" points="710.6719,180.6953,720.6719,184.6953,710.6719,188.6953,714.6719,184.6953" style="stroke:#181818;stroke-width:1;"/><line style="stroke:#181818;stroke-width:1;" x1="422.3945" x2="716.6719" y1="184.6953" y2="184.6953"/><text fill="#000000" font-family="sans-serif" font-size="13" lengthAdjust="spacing" textLength="175.0303" x="429.3945" y="179.6294">GET /api/tasks (initial load)</text></g><g class="message" data-participant-1="Controller" data-participant-2="TaskService"><polygon fill="#181818" points="923.5552,209.8281,933.5552,213.8281,923.5552,217.8281,927.5552,213.8281" style="stroke:#181818;stroke-width:1;"/><line style="stroke:#181818;stroke-width:1;" x1="732.6719" x2="929.5552" y1="213.8281" y2="213.8281"/><text fill="#000000" font-family="sans-serif" font-size="13" lengthAdjust="spacing" textLength="84.5889" x="739.6719" y="208.7622">getAllTasks()</text></g><g class="message" data-participant-1="TaskService" data-participant-2="DB"><polygon fill="#181818" points="1239.2612,238.9609,1249.2612,242.9609,1239.2612,246.9609,1243.2612,242.9609" style="stroke:#181818;stroke-width:1;"/><line style="stroke:#181818;stroke-width:1;" x1="945.5552" x2="1245.2612" y1="242.9609" y2="242.9609"/><text fill="#000000" font-family="sans-serif" font-size="13" lengthAdjust="spacing" textLength="142.7778" x="952.5552" y="237.895">SELECT * FROM Tasks</text></g><g class="message" data-participant-1="DB" data-participant-2="TaskService"><polygon fill="#181818" points="956.5552,268.0938,946.5552,272.0938,956.5552,276.0938,952.5552,272.0938" style="stroke:#181818;stroke-width:1;"/><line style="stroke:#181818;stroke-width:1;stroke-dasharray:2,2;" x1="950.5552" x2="1255.2612" y1="272.0938" y2="272.0938"/><text fill="#000000" font-family="sans-serif" font-size="13" lengthAdjust="spacing" textLength="59.7314" x="962.5552" y="267.0278">tasks_list</text></g><g class="message" data-participant-1="TaskService" data-participant-2="Controller"><polygon fill="#181818" points="743.6719,297.2266,733.6719,301.2266,743.6719,305.2266,739.6719,301.2266" style="stroke:#181818;stroke-width:1;"/><line style="stroke:#181818;stroke-width:1;stroke-dasharray:2,2;" x1="737.6719" x2="939.5552" y1="301.2266" y2="301.2266"/><text fill="#000000" font-family="sans-serif" font-size="13" lengthAdjust="spacing" textLength="105.5869" x="749.6719" y="296.1606">formatted_tasks</text></g><g class="message" data-participant-1="Controller" data-participant-2="UI"><polygon fill="#181818" points="433.3945,341.4922,423.3945,345.4922,433.3945,349.4922,429.3945,345.4922" style="stroke:#181818;stroke-width:1;"/><line style="stroke:#181818;stroke-width:1;stroke-dasharray:2,2;" x1="427.3945" x2="726.6719" y1="345.4922" y2="345.4922"/><text fill="#000000" font-family="sans-serif" font-size="13" lengthAdjust="spacing" textLength="47.7026" x="439.3945" y="325.2935">200 OK</text><text fill="#000000" font-family="sans-serif" font-size="13" lengthAdjust="spacing" textLength="50.6797" x="439.3945" y="340.4263">{tasks}</text></g><g class="message" data-participant-1="UI" data-participant-2="UI"><line style="stroke:#181818;stroke-width:1;" x1="422.3945" x2="464.3945" y1="394.7578" y2="394.7578"/><line style="stroke:#181818;stroke-width:1;" x1="464.3945" x2="464.3945" y1="394.7578" y2="407.7578"/><line style="stroke:#181818;stroke-width:1;" x1="417.3945" x2="464.3945" y1="407.7578" y2="407.7578"/><polygon fill="#181818" points="427.3945,403.7578,417.3945,407.7578,427.3945,411.7578,423.3945,407.7578" style="stroke:#181818;stroke-width:1;"/><text fill="#000000" font-family="sans-serif" font-size="13" lengthAdjust="spacing" textLength="180.0703" x="429.3945" y="374.5591">&#1054;&#1090;&#1086;&#1073;&#1088;&#1072;&#1078;&#1072;&#1077;&#1090; &#1089;&#1087;&#1080;&#1089;&#1086;&#1082; &#1079;&#1072;&#1076;&#1072;&#1095;</text><text fill="#000000" font-family="sans-serif" font-size="13" lengthAdjust="spacing" textLength="194.6128" x="429.3945" y="389.6919">(&#1089;&#1086;&#1088;&#1090;&#1080;&#1088;&#1086;&#1074;&#1082;&#1072; &#1087;&#1086; &#1087;&#1088;&#1080;&#1086;&#1088;&#1080;&#1090;&#1077;&#1090;&#1091;)</text></g><rect fill="#EEEEEE" height="3" style="stroke:#EEEEEE;stroke-width:1;" width="1330.542" x="0" y="431.3242"/><line style="stroke:#000000;stroke-width:1;" x1="0" x2="1330.542" y1="431.3242" y2="431.3242"/><line style="stroke:#000000;stroke-width:1;" x1="0" x2="1330.542" y1="434.3242" y2="434.3242"/><rect fill="#EEEEEE" height="23.1328" style="stroke:#000000;stroke-width:2;" width="217.2202" x="556.6609" y="420.7578"/><text fill="#000000" font-family="sans-serif" font-size="13" font-weight="bold" lengthAdjust="spacing" textLength="198.6943" x="562.6609" y="436.8247">&#1044;&#1086;&#1073;&#1072;&#1074;&#1083;&#1077;&#1085;&#1080;&#1077; &#1085;&#1086;&#1074;&#1086;&#1081; &#1079;&#1072;&#1076;&#1072;&#1095;&#1080;</text><g class="message" data-participant-1="User" data-participant-2="UI"><polygon fill="#181818" points="400.3945,471.0234,410.3945,475.0234,400.3945,479.0234,404.3945,475.0234" style="stroke:#181818;stroke-width:1;"/><line style="stroke:#181818;stroke-width:1;" x1="64.5498" x2="406.3945" y1="475.0234" y2="475.0234"/><text fill="#000000" font-family="sans-serif" font-size="13" lengthAdjust="spacing" textLength="147.7671" x="71.5498" y="469.9575">&#1042;&#1074;&#1086;&#1076;&#1080;&#1090; &#1085;&#1086;&#1074;&#1091;&#1102; &#1079;&#1072;&#1076;&#1072;&#1095;&#1091;</text></g><g class="message" data-participant-1="UI" data-participant-2="Controller"><polygon fill="#181818" points="710.6719,500.1563,720.6719,504.1563,710.6719,508.1563,714.6719,504.1563" style="stroke:#181818;stroke-width:1;"/><line style="stroke:#181818;stroke-width:1;" x1="422.3945" x2="716.6719" y1="504.1563" y2="504.1563"/><text fill="#000000" font-family="sans-serif" font-size="13" lengthAdjust="spacing" textLength="202.3887" x="429.3945" y="499.0903">POST /api/tasks {title, priority}</text></g><g class="message" data-participant-1="Controller" data-participant-2="TaskService"><polygon fill="#181818" points="923.5552,529.2891,933.5552,533.2891,923.5552,537.2891,927.5552,533.2891" style="stroke:#181818;stroke-width:1;"/><line style="stroke:#181818;stroke-width:1;" x1="732.6719" x2="929.5552" y1="533.2891" y2="533.2891"/><text fill="#000000" font-family="sans-serif" font-size="13" lengthAdjust="spacing" textLength="81.9038" x="739.6719" y="528.2231">createTask()</text></g><g class="message" data-participant-1="TaskService" data-participant-2="TaskService"><line style="stroke:#181818;stroke-width:1;" x1="945.5552" x2="987.5552" y1="562.4219" y2="562.4219"/><line style="stroke:#181818;stroke-width:1;" x1="987.5552" x2="987.5552" y1="562.4219" y2="575.4219"/><line style="stroke:#181818;stroke-width:1;" x1="946.5552" x2="987.5552" y1="575.4219" y2="575.4219"/><polygon fill="#181818" points="956.5552,571.4219,946.5552,575.4219,956.5552,579.4219,952.5552,575.4219" style="stroke:#181818;stroke-width:1;"/><text fill="#000000" font-family="sans-serif" font-size="13" lengthAdjust="spacing" textLength="123.5889" x="952.5552" y="557.356">validateTaskData()</text></g><path d="M666.3408,590.4219 L730.7837,590.4219 L730.7837,597.5547 L720.7837,607.5547 L666.3408,607.5547 L666.3408,590.4219" fill="#EEEEEE" style="stroke:#000000;stroke-width:1.5;"/><rect fill="none" height="148.4688" style="stroke:#000000;stroke-width:1.5;" width="654.2012" x="666.3408" y="590.4219"/><text fill="#000000" font-family="sans-serif" font-size="13" font-weight="bold" lengthAdjust="spacing" textLength="19.4429" x="681.3408" y="603.4888">alt</text><text fill="#000000" font-family="sans-serif" font-size="11" font-weight="bold" lengthAdjust="spacing" textLength="140.7925" x="745.7837" y="602.6323">[&#1044;&#1072;&#1085;&#1085;&#1099;&#1077; &#1082;&#1086;&#1088;&#1088;&#1077;&#1082;&#1090;&#1085;&#1099;&#1077;]</text><g class="message" data-participant-1="TaskService" data-participant-2="DB"><polygon fill="#181818" points="1239.2612,624.6875,1249.2612,628.6875,1239.2612,632.6875,1243.2612,628.6875" style="stroke:#181818;stroke-width:1;"/><line style="stroke:#181818;stroke-width:1;" x1="945.5552" x2="1245.2612" y1="628.6875" y2="628.6875"/><text fill="#000000" font-family="sans-serif" font-size="13" lengthAdjust="spacing" textLength="123.9761" x="952.5552" y="623.6216">INSERT INTO Tasks</text></g><g class="message" data-participant-1="DB" data-participant-2="TaskService"><polygon fill="#181818" points="956.5552,653.8203,946.5552,657.8203,956.5552,661.8203,952.5552,657.8203" style="stroke:#181818;stroke-width:1;"/><line style="stroke:#181818;stroke-width:1;stroke-dasharray:2,2;" x1="950.5552" x2="1255.2612" y1="657.8203" y2="657.8203"/><text fill="#000000" font-family="sans-serif" font-size="13" lengthAdjust="spacing" textLength="79.0981" x="962.5552" y="652.7544">new_task_id</text></g><g class="message" data-participant-1="TaskService" data-participant-2="Controller"><polygon fill="#181818" points="743.6719,682.9531,733.6719,686.9531,743.6719,690.9531,739.6719,686.9531" style="stroke:#181818;stroke-width:1;"/><line style="stroke:#181818;stroke-width:1;stroke-dasharray:2,2;" x1="737.6719" x2="934.5552" y1="686.9531" y2="686.9531"/><text fill="#000000" font-family="sans-serif" font-size="13" lengthAdjust="spacing" textLength="121.729" x="749.6719" y="681.8872">success(new_task)</text></g><line style="stroke:#000000;stroke-width:1;stroke-dasharray:2,2;" x1="666.3408" x2="1320.542" y1="695.9531" y2="695.9531"/><text fill="#000000" font-family="sans-serif" font-size="11" font-weight="bold" lengthAdjust="spacing" textLength="135.2173" x="671.3408" y="706.1636">[&#1054;&#1096;&#1080;&#1073;&#1082;&#1072; &#1074;&#1072;&#1083;&#1080;&#1076;&#1072;&#1094;&#1080;&#1080;]</text><g class="message" data-participant-1="TaskService" data-participant-2="Controller"><polygon fill="#181818" points="743.6719,726.8906,733.6719,730.8906,743.6719,734.8906,739.6719,730.8906" style="stroke:#181818;stroke-width:1;"/><line style="stroke:#181818;stroke-width:1;stroke-dasharray:2,2;" x1="737.6719" x2="934.5552" y1="730.8906" y2="730.8906"/><text fill="#000000" font-family="sans-serif" font-size="13" lengthAdjust="spacing" textLength="178.8833" x="749.6719" y="725.8247">error("&#1053;&#1077;&#1074;&#1077;&#1088;&#1085;&#1099;&#1077; &#1076;&#1072;&#1085;&#1085;&#1099;&#1077;")</text></g><g class="message" data-participant-1="Controller" data-participant-2="UI"><polygon fill="#181818" points="433.3945,763.0234,423.3945,767.0234,433.3945,771.0234,429.3945,767.0234" style="stroke:#181818;stroke-width:1;"/><line style="stroke:#181818;stroke-width:1;stroke-dasharray:2,2;" x1="427.3945" x2="726.6719" y1="767.0234" y2="767.0234"/><text fill="#000000" font-family="sans-serif" font-size="13" lengthAdjust="spacing" textLength="63.0195" x="439.3945" y="761.9575">Response</text></g><g class="message" data-participant-1="UI" data-participant-2="UI"><line style="stroke:#181818;stroke-width:1;" x1="422.3945" x2="464.3945" y1="796.1563" y2="796.1563"/><line style="stroke:#181818;stroke-width:1;" x1="464.3945" x2="464.3945" y1="796.1563" y2="809.1563"/><line style="stroke:#181818;stroke-width:1;" x1="423.3945" x2="464.3945" y1="809.1563" y2="809.1563"/><polygon fill="#181818" points="433.3945,805.1563,423.3945,809.1563,433.3945,813.1563,429.3945,809.1563" style="stroke:#181818;stroke-width:1;"/><text fill="#000000" font-family="sans-serif" font-size="13" lengthAdjust="spacing" textLength="168.8921" x="429.3945" y="791.0903">&#1054;&#1073;&#1085;&#1086;&#1074;&#1083;&#1103;&#1077;&#1090; &#1089;&#1087;&#1080;&#1089;&#1086;&#1082; &#1079;&#1072;&#1076;&#1072;&#1095;</text></g><g class="message" data-participant-1="UI" data-participant-2="User"><polygon fill="#181818" points="70.5498,834.2891,60.5498,838.2891,70.5498,842.2891,66.5498,838.2891" style="stroke:#181818;stroke-width:1;"/><line style="stroke:#181818;stroke-width:1;stroke-dasharray:2,2;" x1="64.5498" x2="416.3945" y1="838.2891" y2="838.2891"/><text fill="#000000" font-family="sans-serif" font-size="13" lengthAdjust="spacing" textLength="323.8447" x="76.5498" y="833.2231">&#1055;&#1086;&#1082;&#1072;&#1079;&#1099;&#1074;&#1072;&#1077;&#1090; &#1091;&#1074;&#1077;&#1076;&#1086;&#1084;&#1083;&#1077;&#1085;&#1080;&#1077; &#171;&#1047;&#1072;&#1076;&#1072;&#1095;&#1072; &#1076;&#1086;&#1073;&#1072;&#1074;&#1083;&#1077;&#1085;&#1072;&#187;</text></g><rect fill="#EEEEEE" height="3" style="stroke:#EEEEEE;stroke-width:1;" width="1330.542" x="0" y="866.8555"/><line style="stroke:#000000;stroke-width:1;" x1="0" x2="1330.542" y1="866.8555" y2="866.8555"/><line style="stroke:#000000;stroke-width:1;" x1="0" x2="1330.542" y1="869.8555" y2="869.8555"/><rect fill="#EEEEEE" height="23.1328" style="stroke:#000000;stroke-width:2;" width="170.4888" x="580.0266" y="856.2891"/><text fill="#000000" font-family="sans-serif" font-size="13" font-weight="bold" lengthAdjust="spacing" textLength="151.9629" x="586.0266" y="872.356">&#1042;&#1099;&#1087;&#1086;&#1083;&#1085;&#1077;&#1085;&#1080;&#1077; &#1079;&#1072;&#1076;&#1072;&#1095;&#1080;</text><g class="message" data-participant-1="User" data-participant-2="UI"><polygon fill="#181818" points="400.3945,906.5547,410.3945,910.5547,400.3945,914.5547,404.3945,910.5547" style="stroke:#181818;stroke-width:1;"/><line style="stroke:#181818;stroke-width:1;" x1="64.5498" x2="406.3945" y1="910.5547" y2="910.5547"/><text fill="#000000" font-family="sans-serif" font-size="13" lengthAdjust="spacing" textLength="153.5435" x="71.5498" y="905.4888">&#1050;&#1083;&#1080;&#1082;&#1072;&#1077;&#1090; &#171;&#1042;&#1099;&#1087;&#1086;&#1083;&#1085;&#1080;&#1090;&#1100;&#187;</text></g><g class="message" data-participant-1="UI" data-participant-2="Controller"><polygon fill="#181818" points="710.6719,935.6875,720.6719,939.6875,710.6719,943.6875,714.6719,939.6875" style="stroke:#181818;stroke-width:1;"/><line style="stroke:#181818;stroke-width:1;" x1="422.3945" x2="716.6719" y1="939.6875" y2="939.6875"/><text fill="#000000" font-family="sans-serif" font-size="13" lengthAdjust="spacing" textLength="281.2773" x="429.3945" y="934.6216">PATCH /api/tasks/{id} {status: completed}</text></g><g class="message" data-participant-1="Controller" data-participant-2="TaskService"><polygon fill="#181818" points="923.5552,964.8203,933.5552,968.8203,923.5552,972.8203,927.5552,968.8203" style="stroke:#181818;stroke-width:1;"/><line style="stroke:#181818;stroke-width:1;" x1="732.6719" x2="929.5552" y1="968.8203" y2="968.8203"/><text fill="#000000" font-family="sans-serif" font-size="13" lengthAdjust="spacing" textLength="127.5815" x="739.6719" y="963.7544">updateTaskStatus()</text></g><g class="message" data-participant-1="TaskService" data-participant-2="DB"><polygon fill="#181818" points="1239.2612,993.9531,1249.2612,997.9531,1239.2612,1001.9531,1243.2612,997.9531" style="stroke:#181818;stroke-width:1;"/><line style="stroke:#181818;stroke-width:1;" x1="945.5552" x2="1245.2612" y1="997.9531" y2="997.9531"/><text fill="#000000" font-family="sans-serif" font-size="13" lengthAdjust="spacing" textLength="253.1572" x="952.5552" y="992.8872">UPDATE Tasks SET status='completed'</text></g><g class="message" data-participant-1="DB" data-participant-2="TaskService"><polygon fill="#181818" points="956.5552,1023.0859,946.5552,1027.0859,956.5552,1031.0859,952.5552,1027.0859" style="stroke:#181818;stroke-width:1;"/><line style="stroke:#181818;stroke-width:1;stroke-dasharray:2,2;" x1="950.5552" x2="1255.2612" y1="1027.0859" y2="1027.0859"/><text fill="#000000" font-family="sans-serif" font-size="13" lengthAdjust="spacing" textLength="15.4819" x="962.5552" y="1022.02">ok</text></g><g class="message" data-participant-1="TaskService" data-participant-2="TaskService"><line style="stroke:#181818;stroke-width:1;" x1="945.5552" x2="987.5552" y1="1056.2188" y2="1056.2188"/><line style="stroke:#181818;stroke-width:1;" x1="987.5552" x2="987.5552" y1="1056.2188" y2="1069.2188"/><line style="stroke:#181818;stroke-width:1;" x1="946.5552" x2="987.5552" y1="1069.2188" y2="1069.2188"/><polygon fill="#181818" points="956.5552,1065.2188,946.5552,1069.2188,956.5552,1073.2188,952.5552,1069.2188" style="stroke:#181818;stroke-width:1;"/><text fill="#000000" font-family="sans-serif" font-size="13" lengthAdjust="spacing" textLength="143.6348" x="952.5552" y="1051.1528">checkIfAllCompleted()</text></g><path d="M873.8921,1084.2188 L938.335,1084.2188 L938.335,1091.3516 L928.335,1101.3516 L873.8921,1101.3516 L873.8921,1084.2188" fill="#EEEEEE" style="stroke:#000000;stroke-width:1.5;"/><rect fill="none" height="75.3984" style="stroke:#000000;stroke-width:1.5;" width="328.0884" x="873.8921" y="1084.2188"/><text fill="#000000" font-family="sans-serif" font-size="13" font-weight="bold" lengthAdjust="spacing" textLength="19.4429" x="888.8921" y="1097.2856">alt</text><text fill="#000000" font-family="sans-serif" font-size="11" font-weight="bold" lengthAdjust="spacing" textLength="158.1895" x="953.335" y="1096.4292">[&#1042;&#1089;&#1077; &#1079;&#1072;&#1076;&#1072;&#1095;&#1080; &#1074;&#1099;&#1087;&#1086;&#1083;&#1085;&#1077;&#1085;&#1099;]</text><g class="message" data-participant-1="TaskService" data-participant-2="CategoryService"><polygon fill="#181818" points="1106.1899,1118.4844,1116.1899,1122.4844,1106.1899,1126.4844,1110.1899,1122.4844" style="stroke:#181818;stroke-width:1;"/><line style="stroke:#181818;stroke-width:1;" x1="945.5552" x2="1112.1899" y1="1122.4844" y2="1122.4844"/><text fill="#000000" font-family="sans-serif" font-size="13" lengthAdjust="spacing" textLength="76.9463" x="952.5552" y="1117.4185">notifyUser()</text></g><g class="message" data-participant-1="CategoryService" data-participant-2="TaskService"><polygon fill="#181818" points="956.5552,1147.6172,946.5552,1151.6172,956.5552,1155.6172,952.5552,1151.6172" style="stroke:#181818;stroke-width:1;"/><line style="stroke:#181818;stroke-width:1;stroke-dasharray:2,2;" x1="950.5552" x2="1117.1899" y1="1151.6172" y2="1151.6172"/><text fill="#000000" font-family="sans-serif" font-size="13" lengthAdjust="spacing" textLength="15.4819" x="962.5552" y="1146.5513">ok</text></g><g class="message" data-participant-1="TaskService" data-participant-2="Controller"><polygon fill="#181818" points="743.6719,1183.75,733.6719,1187.75,743.6719,1191.75,739.6719,1187.75" style="stroke:#181818;stroke-width:1;"/><line style="stroke:#181818;stroke-width:1;stroke-dasharray:2,2;" x1="737.6719" x2="939.5552" y1="1187.75" y2="1187.75"/><text fill="#000000" font-family="sans-serif" font-size="13" lengthAdjust="spacing" textLength="50.8511" x="749.6719" y="1182.6841">success</text></g><g class="message" data-participant-1="Controller" data-participant-2="UI"><polygon fill="#181818" points="433.3945,1212.8828,423.3945,1216.8828,433.3945,1220.8828,429.3945,1216.8828" style="stroke:#181818;stroke-width:1;"/><line style="stroke:#181818;stroke-width:1;stroke-dasharray:2,2;" x1="427.3945" x2="726.6719" y1="1216.8828" y2="1216.8828"/><text fill="#000000" font-family="sans-serif" font-size="13" lengthAdjust="spacing" textLength="47.7026" x="439.3945" y="1211.8169">200 OK</text></g><g class="message" data-participant-1="UI" data-participant-2="UI"><line style="stroke:#181818;stroke-width:1;" x1="422.3945" x2="464.3945" y1="1261.1484" y2="1261.1484"/><line style="stroke:#181818;stroke-width:1;" x1="464.3945" x2="464.3945" y1="1261.1484" y2="1274.1484"/><line style="stroke:#181818;stroke-width:1;" x1="423.3945" x2="464.3945" y1="1274.1484" y2="1274.1484"/><polygon fill="#181818" points="433.3945,1270.1484,423.3945,1274.1484,433.3945,1278.1484,429.3945,1274.1484" style="stroke:#181818;stroke-width:1;"/><text fill="#000000" font-family="sans-serif" font-size="13" lengthAdjust="spacing" textLength="175.3921" x="429.3945" y="1240.9497">&#1054;&#1073;&#1085;&#1086;&#1074;&#1083;&#1103;&#1077;&#1090; &#1089;&#1090;&#1072;&#1090;&#1091;&#1089; &#1079;&#1072;&#1076;&#1072;&#1095;&#1080;</text><text fill="#000000" font-family="sans-serif" font-size="13" lengthAdjust="spacing" textLength="185.7134" x="429.3945" y="1256.0825">(&#1079;&#1072;&#1095;&#1077;&#1088;&#1082;&#1085;&#1091;&#1090;&#1100; + &#1089;&#1077;&#1088;&#1099;&#1081; &#1094;&#1074;&#1077;&#1090;)</text></g><g class="message" data-participant-1="UI" data-participant-2="User"><polygon fill="#181818" points="70.5498,1299.2813,60.5498,1303.2813,70.5498,1307.2813,66.5498,1303.2813" style="stroke:#181818;stroke-width:1;"/><line style="stroke:#181818;stroke-width:1;stroke-dasharray:2,2;" x1="64.5498" x2="416.3945" y1="1303.2813" y2="1303.2813"/><text fill="#000000" font-family="sans-serif" font-size="13" lengthAdjust="spacing" textLength="224.9165" x="76.5498" y="1298.2153">&#1055;&#1086;&#1082;&#1072;&#1079;&#1072;&#1085;&#1072; &#1072;&#1085;&#1080;&#1084;&#1072;&#1094;&#1080;&#1103; &#1074;&#1099;&#1087;&#1086;&#1083;&#1085;&#1077;&#1085;&#1080;&#1103;</text></g><rect fill="#EEEEEE" height="3" style="stroke:#EEEEEE;stroke-width:1;" width="1330.542" x="0" y="1331.8477"/><line style="stroke:#000000;stroke-width:1;" x1="0" x2="1330.542" y1="1331.8477" y2="1331.8477"/><line style="stroke:#000000;stroke-width:1;" x1="0" x2="1330.542" y1="1334.8477" y2="1334.8477"/><rect fill="#EEEEEE" height="23.1328" style="stroke:#000000;stroke-width:2;" width="160.0215" x="585.2603" y="1321.2813"/><text fill="#000000" font-family="sans-serif" font-size="13" font-weight="bold" lengthAdjust="spacing" textLength="141.4956" x="591.2603" y="1337.3481">&#1060;&#1080;&#1083;&#1100;&#1090;&#1088;&#1072;&#1094;&#1080;&#1103; &#1079;&#1072;&#1076;&#1072;&#1095;</text><g class="message" data-participant-1="User" data-participant-2="UI"><polygon fill="#181818" points="400.3945,1371.5469,410.3945,1375.5469,400.3945,1379.5469,404.3945,1375.5469" style="stroke:#181818;stroke-width:1;"/><line style="stroke:#181818;stroke-width:1;" x1="64.5498" x2="406.3945" y1="1375.5469" y2="1375.5469"/><text fill="#000000" font-family="sans-serif" font-size="13" lengthAdjust="spacing" textLength="145.3867" x="71.5498" y="1370.481">&#1042;&#1099;&#1073;&#1080;&#1088;&#1072;&#1077;&#1090; &#1082;&#1072;&#1090;&#1077;&#1075;&#1086;&#1088;&#1080;&#1102;</text></g><g class="message" data-participant-1="UI" data-participant-2="Controller"><polygon fill="#181818" points="710.6719,1400.6797,720.6719,1404.6797,710.6719,1408.6797,714.6719,1404.6797" style="stroke:#181818;stroke-width:1;"/><line style="stroke:#181818;stroke-width:1;" x1="422.3945" x2="716.6719" y1="1404.6797" y2="1404.6797"/><text fill="#000000" font-family="sans-serif" font-size="13" lengthAdjust="spacing" textLength="182.1777" x="429.3945" y="1399.6138">GET /api/tasks?category=ID</text></g><g class="message" data-participant-1="Controller" data-participant-2="TaskService"><polygon fill="#181818" points="923.5552,1429.8125,933.5552,1433.8125,923.5552,1437.8125,927.5552,1433.8125" style="stroke:#181818;stroke-width:1;"/><line style="stroke:#181818;stroke-width:1;" x1="732.6719" x2="929.5552" y1="1433.8125" y2="1433.8125"/><text fill="#000000" font-family="sans-serif" font-size="13" lengthAdjust="spacing" textLength="144.4663" x="739.6719" y="1428.7466">getTasksByCategory()</text></g><g class="message" data-participant-1="TaskService" data-participant-2="DB"><polygon fill="#181818" points="1239.2612,1458.9453,1249.2612,1462.9453,1239.2612,1466.9453,1243.2612,1462.9453" style="stroke:#181818;stroke-width:1;"/><line style="stroke:#181818;stroke-width:1;" x1="945.5552" x2="1245.2612" y1="1462.9453" y2="1462.9453"/><text fill="#000000" font-family="sans-serif" font-size="13" lengthAdjust="spacing" textLength="230.6421" x="952.5552" y="1457.8794">SELECT ... WHERE category_id = ID</text></g><g class="message" data-participant-1="DB" data-participant-2="TaskService"><polygon fill="#181818" points="956.5552,1488.0781,946.5552,1492.0781,956.5552,1496.0781,952.5552,1492.0781" style="stroke:#181818;stroke-width:1;"/><line style="stroke:#181818;stroke-width:1;stroke-dasharray:2,2;" x1="950.5552" x2="1255.2612" y1="1492.0781" y2="1492.0781"/><text fill="#000000" font-family="sans-serif" font-size="13" lengthAdjust="spacing" textLength="72.084" x="962.5552" y="1487.0122">filtered_list</text></g><g class="message" data-participant-1="TaskService" data-participant-2="Controller"><polygon fill="#181818" points="743.6719,1517.2109,733.6719,1521.2109,743.6719,1525.2109,739.6719,1521.2109" style="stroke:#181818;stroke-width:1;"/><line style="stroke:#181818;stroke-width:1;stroke-dasharray:2,2;" x1="737.6719" x2="939.5552" y1="1521.2109" y2="1521.2109"/><text fill="#000000" font-family="sans-serif" font-size="13" lengthAdjust="spacing" textLength="72.084" x="749.6719" y="1516.145">filtered_list</text></g><g class="message" data-participant-1="Controller" data-participant-2="UI"><polygon fill="#181818" points="433.3945,1546.3438,423.3945,1550.3438,433.3945,1554.3438,429.3945,1550.3438" style="stroke:#181818;stroke-width:1;"/><line style="stroke:#181818;stroke-width:1;stroke-dasharray:2,2;" x1="427.3945" x2="726.6719" y1="1550.3438" y2="1550.3438"/><text fill="#000000" font-family="sans-serif" font-size="13" lengthAdjust="spacing" textLength="84.7603" x="439.3945" y="1545.2778">filtered tasks</text></g><g class="message" data-participant-1="UI" data-participant-2="UI"><line style="stroke:#181818;stroke-width:1;" x1="422.3945" x2="464.3945" y1="1594.6094" y2="1594.6094"/><line style="stroke:#181818;stroke-width:1;" x1="464.3945" x2="464.3945" y1="1594.6094" y2="1607.6094"/><line style="stroke:#181818;stroke-width:1;" x1="423.3945" x2="464.3945" y1="1607.6094" y2="1607.6094"/><polygon fill="#181818" points="433.3945,1603.6094,423.3945,1607.6094,433.3945,1611.6094,429.3945,1607.6094" style="stroke:#181818;stroke-width:1;"/><text fill="#000000" font-family="sans-serif" font-size="13" lengthAdjust="spacing" textLength="85.2427" x="429.3945" y="1574.4106">&#1054;&#1090;&#1086;&#1073;&#1088;&#1072;&#1078;&#1072;&#1077;&#1090;</text><text fill="#000000" font-family="sans-serif" font-size="13" lengthAdjust="spacing" textLength="177.8232" x="429.3945" y="1589.5435">&#1086;&#1090;&#1092;&#1080;&#1083;&#1100;&#1090;&#1088;&#1086;&#1074;&#1072;&#1085;&#1085;&#1099;&#1077; &#1079;&#1072;&#1076;&#1072;&#1095;&#1080;</text></g><g class="message" data-participant-1="UI" data-participant-2="User"><polygon fill="#181818" points="70.5498,1632.7422,60.5498,1636.7422,70.5498,1640.7422,66.5498,1636.7422" style="stroke:#181818;stroke-width:1;"/><line style="stroke:#181818;stroke-width:1;stroke-dasharray:2,2;" x1="64.5498" x2="416.3945" y1="1636.7422" y2="1636.7422"/><text fill="#000000" font-family="sans-serif" font-size="13" lengthAdjust="spacing" textLength="118.0029" x="76.5498" y="1631.6763">&#1057;&#1087;&#1080;&#1089;&#1086;&#1082; &#1086;&#1073;&#1085;&#1086;&#1074;&#1083;&#1105;&#1085;</text></g><rect fill="#EEEEEE" height="3" style="stroke:#EEEEEE;stroke-width:1;" width="1330.542" x="0" y="1665.3086"/><line style="stroke:#000000;stroke-width:1;" x1="0" x2="1330.542" y1="1665.3086" y2="1665.3086"/><line style="stroke:#000000;stroke-width:1;" x1="0" x2="1330.542" y1="1668.3086" y2="1668.3086"/><rect fill="#EEEEEE" height="23.1328" style="stroke:#000000;stroke-width:2;" width="144.7681" x="592.887" y="1654.7422"/><text fill="#000000" font-family="sans-serif" font-size="13" font-weight="bold" lengthAdjust="spacing" textLength="126.2422" x="598.887" y="1670.8091">&#1047;&#1072;&#1074;&#1077;&#1088;&#1096;&#1077;&#1085;&#1080;&#1077; &#1076;&#1085;&#1103;</text><g class="message" data-participant-1="User" data-participant-2="UI"><polygon fill="#181818" points="405.3945,1705.0078,415.3945,1709.0078,405.3945,1713.0078,409.3945,1709.0078" style="stroke:#181818;stroke-width:1;"/><line style="stroke:#181818;stroke-width:1;" x1="59.5498" x2="411.3945" y1="1709.0078" y2="1709.0078"/><text fill="#000000" font-family="sans-serif" font-size="13" lengthAdjust="spacing" textLength="164.1187" x="66.5498" y="1703.9419">&#1047;&#1072;&#1082;&#1088;&#1099;&#1074;&#1072;&#1077;&#1090; &#1087;&#1088;&#1080;&#1083;&#1086;&#1078;&#1077;&#1085;&#1080;&#1077;</text></g><g class="message" data-participant-1="UI" data-participant-2="UI"><line style="stroke:#181818;stroke-width:1;" x1="417.3945" x2="459.3945" y1="1738.1406" y2="1738.1406"/><line style="stroke:#181818;stroke-width:1;" x1="459.3945" x2="459.3945" y1="1738.1406" y2="1751.1406"/><line style="stroke:#181818;stroke-width:1;" x1="418.3945" x2="459.3945" y1="1751.1406" y2="1751.1406"/><polygon fill="#181818" points="428.3945,1747.1406,418.3945,1751.1406,428.3945,1755.1406,424.3945,1751.1406" style="stroke:#181818;stroke-width:1;"/><text fill="#000000" font-family="sans-serif" font-size="13" lengthAdjust="spacing" textLength="187.0337" x="424.3945" y="1733.0747">&#1040;&#1074;&#1090;&#1086;&#1089;&#1086;&#1093;&#1088;&#1072;&#1085;&#1077;&#1085;&#1080;&#1077; &#1089;&#1086;&#1089;&#1090;&#1086;&#1103;&#1085;&#1080;&#1103;</text></g><g class="message" data-participant-1="UI" data-participant-2="User"><polygon fill="#181818" points="70.5498,1776.2734,60.5498,1780.2734,70.5498,1784.2734,66.5498,1780.2734" style="stroke:#181818;stroke-width:1;"/><line style="stroke:#181818;stroke-width:1;stroke-dasharray:2,2;" x1="64.5498" x2="416.3945" y1="1780.2734" y2="1780.2734"/><text fill="#000000" font-family="sans-serif" font-size="13" lengthAdjust="spacing" textLength="148.3003" x="76.5498" y="1775.2075">&#1055;&#1088;&#1080;&#1083;&#1086;&#1078;&#1077;&#1085;&#1080;&#1077; &#1079;&#1072;&#1082;&#1088;&#1099;&#1090;&#1086;</text></g><!--SRC=[fLTVJzj847_tfrZbfQ5_eBf7fBG2ahj6ToqL2UeB4hASfMVXsf6zK2641CdrMWbKMbIfKgNsLDsztKlWo5tgb23r4-n-eviPs_762P3GvC7PzSwVdVdzPYQc9JoVvUGViYUxwa3-1yyJsL8DsSPrZfa1MmwuRzHDNzYMNJTTmNBBvUX5UN1RVW3fCzLGkwWDlcsrImSNF5VudkDazSZFU0GCTjGU0zijUGgsNv9CrGpMAzpVj2r-cL0OE_kFxC5cHtw939g2F_NyhT4Ate8XCCRGcZm3Z_VL2n8hpXj6eS3adtI7Dhv3bP5hvwgfzcJ82WK38yBkt8C0p3Bv2Uo7QbVjO-30jGQ3e-XA5wBmBsdfoBPXMiBU1BUYSAQhic4ibr5P6gHPzbEfocRCkZqZ80e1ozkkBMpJOOvdrgPIOIskHleRbMdHcsLFkPXp7DmAyfgq7c53Mw1ySNwMLKg_b1Qgx2RxSMdn8PqEKc48LN6UtScQ8dzN7JiGHethXmSDPAwxvldFJ25uRPNaTT419_Kxnk7_uUvTjlZpYhjDaZkwg1wTACJzVFNaCQIe1Uc9CWQ9FKSymOjG0-AAcySzI6u3tkuIDq84phdi9Lacs2440JFDATq-f5PVOTe9NU_GF9WuGOP4w63mGEMz16naNdQ6m7P4XqxHOYm3g7ojoQZcP4Xxl5WPWDgsi8N3RxEwRtk-BRPs9aQRvNCuZLlZWcr0VDDqx5gie6WA4vKu0gCMSnMZ5L9IaA8XX9us3GQV4IWkFwgKbghmg2x66CQ3EZHnFGhBBdzEU5orQtGc0-WXUvd81XkMnOCWdwYPChWJSCJVAqZvSGGaB1bTM6BkVeTdvqgrtFSzFv-J7-7o9rG9uvYSfW7AWIstDWcDbdXGzzo0ZyCVy3r2QrSTNiOU4aAf0Fsc5XDYvTKgfMhY7U1uJtxLsF3jR_c-JmAgquECQNthZaEq8x1qJgteB2NQPUpwGBa8O-V02rq3K4uTWE79w3LNNNYWyMjcswxjiEr0c68Z0Avup-eEXy8tESqswWbBAgHiaig-_BWuLor5T80oNsMHFuKRVNzkN5dflVLBAtosAFpAhVNo6hIXXSH4GkmZ04ucBr3L1ZAdzaUnEzFaWR2UiDUsC2sW6mKo9qPU0ebYZC7ZoPlIDRa41Qs5lMHW998Tw4MuX9_8-H22qaH0ibj8lpRD7ryOr12i2OsfYxX7DG8OrI8wV8sgZZeSYZXkZaEnlt3EKGSqB_LrzRqURbzWvPXQQJmfPSOtzVfxvgJxLfplGhbudI69-32_bQ3c6hFIzFGqU_AWj5HYYIlGF5Y1wVvSmASrsn7SXn5euk7f8i6hK9e8ig6XQ_p9QSM5n3NKRneCw0z4sger26T0-Ldl6ZsD2M_bsJZOUqyT0Q7_AYtlfs3tS0XtU7IC6LsxwnjW1DoMnhyNTEEqXz3c7hq-ZAcIeTkmxYWGv0CA_Wy0]--></g></svg>