<svg xmlns="http://www.w3.org/2000/svg" xmlns:xlink="http://www.w3.org/1999/xlink" contentStyleType="text/css" data-diagram-type="CLASS" height="607px" preserveAspectRatio="none" style="width:591px;height:607px;background:#FFFFFF;" version="1.1" viewBox="0 0 591 607" width="591px" zoomAndPan="magnify"><title>ER-&#1076;&#1080;&#1072;&#1075;&#1088;&#1072;&#1084;&#1084;&#1072; &#8212; &#1051;&#1080;&#1095;&#1085;&#1099;&#1081; &#1092;&#1080;&#1085;&#1072;&#1085;&#1089;&#1086;&#1074;&#1099;&#1081; &#1084;&#1077;&#1085;&#1077;&#1076;&#1078;&#1077;&#1088;</title><defs/><g><g class="title" data-source-line="3"><text fill="#000000" font-family="sans-serif" font-size="14" font-weight="bold" lengthAdjust="spacing" textLength="399.123" x="89.0594" y="22.9951">ER-&#1076;&#1080;&#1072;&#1075;&#1088;&#1072;&#1084;&#1084;&#1072; &#8212; &#1051;&#1080;&#1095;&#1085;&#1099;&#1081; &#1092;&#1080;&#1085;&#1072;&#1085;&#1089;&#1086;&#1074;&#1099;&#1081; &#1084;&#1077;&#1085;&#1077;&#1076;&#1078;&#1077;&#1088;</text></g><!--class Users--><g class="entity" data-entity="Users" data-source-line="12" data-uid="ent0002" id="entity_Users"><rect fill="#FFFFFF" height="113.1875" rx="2.5" ry="2.5" style="stroke:#000000;stroke-width:0.5;" width="190.5547" x="19.62" y="44.2969"/><ellipse cx="91.0453" cy="60.2969" fill="#ADD1B2" rx="11" ry="11" style="stroke:#181818;stroke-width:1;"/><path d="M94.014,65.9375 Q93.4359,66.2344 92.7953,66.375 Q92.1547,66.5313 91.4515,66.5313 Q88.9515,66.5313 87.6234,64.8906 Q86.3109,63.2344 86.3109,60.1094 Q86.3109,56.9844 87.6234,55.3281 Q88.9515,53.6719 91.4515,53.6719 Q92.1547,53.6719 92.7953,53.8281 Q93.4515,53.9844 94.014,54.2813 L94.014,57 Q93.389,56.4219 92.7953,56.1563 Q92.2015,55.875 91.5765,55.875 Q90.2328,55.875 89.5453,56.9531 Q88.8578,58.0156 88.8578,60.1094 Q88.8578,62.2031 89.5453,63.2813 Q90.2328,64.3438 91.5765,64.3438 Q92.2015,64.3438 92.7953,64.0781 Q93.389,63.7969 94.014,63.2188 L94.014,65.9375 Z " fill="#000000"/><text fill="#000000" font-family="sans-serif" font-size="14" lengthAdjust="spacing" textLength="39.2041" x="111.5453" y="65.1436">Users</text><line style="stroke:#000000;stroke-width:0.5;" x1="20.62" x2="209.1747" y1="76.2969" y2="76.2969"/><ellipse cx="30.62" cy="89.9453" fill="#000000" rx="3" ry="3" style="stroke:#000000;stroke-width:1;"/><text fill="#000000" font-family="sans-serif" font-size="14" lengthAdjust="spacing" textLength="164.5547" x="39.62" y="93.292">user_id : INTEGER &#171;PK&#187;</text><line style="stroke:#000000;stroke-width:1;" x1="20.62" x2="209.1747" y1="100.5938" y2="100.5938"/><text fill="#000000" font-family="sans-serif" font-size="14" lengthAdjust="spacing" textLength="119.3965" x="25.62" y="117.5889">username : TEXT</text><text fill="#000000" font-family="sans-serif" font-size="14" lengthAdjust="spacing" textLength="87.7666" x="25.62" y="133.8857">email : TEXT</text><text fill="#000000" font-family="sans-serif" font-size="14" lengthAdjust="spacing" textLength="169.4629" x="25.62" y="150.1826">created_at : TIMESTAMP</text></g><!--class Accounts--><g class="entity" data-entity="Accounts" data-source-line="21" data-uid="ent0003" id="entity_Accounts"><rect fill="#FFFFFF" height="113.1875" rx="2.5" ry="2.5" style="stroke:#000000;stroke-width:0.5;" width="215.793" x="7" y="249.4869"/><ellipse cx="78.6133" cy="265.4869" fill="#ADD1B2" rx="11" ry="11" style="stroke:#181818;stroke-width:1;"/><path d="M81.582,271.1275 Q81.0039,271.4244 80.3633,271.565 Q79.7227,271.7212 79.0195,271.7212 Q76.5195,271.7212 75.1914,270.0806 Q73.8789,268.4244 73.8789,265.2994 Q73.8789,262.1744 75.1914,260.5181 Q76.5195,258.8619 79.0195,258.8619 Q79.7227,258.8619 80.3633,259.0181 Q81.0195,259.1744 81.582,259.4712 L81.582,262.19 Q80.957,261.6119 80.3633,261.3462 Q79.7695,261.065 79.1445,261.065 Q77.8008,261.065 77.1133,262.1431 Q76.4258,263.2056 76.4258,265.2994 Q76.4258,267.3931 77.1133,268.4712 Q77.8008,269.5337 79.1445,269.5337 Q79.7695,269.5337 80.3633,269.2681 Q80.957,268.9869 81.582,268.4087 L81.582,271.1275 Z " fill="#000000"/><text fill="#000000" font-family="sans-serif" font-size="14" lengthAdjust="spacing" textLength="64.0664" x="99.1133" y="270.3336">Accounts</text><line style="stroke:#000000;stroke-width:0.5;" x1="8" x2="221.793" y1="281.4869" y2="281.4869"/><ellipse cx="18" cy="295.1353" fill="#000000" rx="3" ry="3" style="stroke:#000000;stroke-width:1;"/><text fill="#000000" font-family="sans-serif" font-size="14" lengthAdjust="spacing" textLength="189.793" x="27" y="298.482">account_id : INTEGER &#171;PK&#187;</text><line style="stroke:#000000;stroke-width:1;" x1="8" x2="221.793" y1="305.7837" y2="305.7837"/><text fill="#000000" font-family="sans-serif" font-size="14" lengthAdjust="spacing" textLength="88.8604" x="13" y="322.7789">name : TEXT</text><text fill="#000000" font-family="sans-serif" font-size="14" lengthAdjust="spacing" textLength="104.6855" x="13" y="339.0757">balance : REAL</text><text fill="#000000" font-family="sans-serif" font-size="14" lengthAdjust="spacing" textLength="164.165" x="13" y="355.3726">user_id : INTEGER &#171;FK&#187;</text></g><!--class Categories--><g class="entity" data-entity="Categories" data-source-line="30" data-uid="ent0004" id="entity_Categories"><rect fill="#FFFFFF" height="113.1875" rx="2.5" ry="2.5" style="stroke:#000000;stroke-width:0.5;" width="221.8906" x="257.95" y="249.4869"/><ellipse cx="326.9144" cy="265.4869" fill="#ADD1B2" rx="11" ry="11" style="stroke:#181818;stroke-width:1;"/><path d="M329.8831,271.1275 Q329.305,271.4244 328.6644,271.565 Q328.0237,271.7212 327.3206,271.7212 Q324.8206,271.7212 323.4925,270.0806 Q322.18,268.4244 322.18,265.2994 Q322.18,262.1744 323.4925,260.5181 Q324.8206,258.8619 327.3206,258.8619 Q328.0237,258.8619 328.6644,259.0181 Q329.3206,259.1744 329.8831,259.4712 L329.8831,262.19 Q329.2581,261.6119 328.6644,261.3462 Q328.0706,261.065 327.4456,261.065 Q326.1019,261.065 325.4144,262.1431 Q324.7269,263.2056 324.7269,265.2994 Q324.7269,267.3931 325.4144,268.4712 Q326.1019,269.5337 327.4456,269.5337 Q328.0706,269.5337 328.6644,269.2681 Q329.2581,268.9869 329.8831,268.4087 L329.8831,271.1275 Z " fill="#000000"/><text fill="#000000" font-family="sans-serif" font-size="14" lengthAdjust="spacing" textLength="75.4619" x="347.4144" y="270.3336">Categories</text><line style="stroke:#000000;stroke-width:0.5;" x1="258.95" x2="478.8406" y1="281.4869" y2="281.4869"/><ellipse cx="268.95" cy="295.1353" fill="#000000" rx="3" ry="3" style="stroke:#000000;stroke-width:1;"/><text fill="#000000" font-family="sans-serif" font-size="14" lengthAdjust="spacing" textLength="195.8906" x="277.95" y="298.482">category_id : INTEGER &#171;PK&#187;</text><line style="stroke:#000000;stroke-width:1;" x1="258.95" x2="478.8406" y1="305.7837" y2="305.7837"/><text fill="#000000" font-family="sans-serif" font-size="14" lengthAdjust="spacing" textLength="88.8604" x="263.95" y="322.7789">name : TEXT</text><text fill="#000000" font-family="sans-serif" font-size="14" lengthAdjust="spacing" textLength="80.4316" x="263.95" y="339.0757">type : TEXT</text><text fill="#000000" font-family="sans-serif" font-size="14" lengthAdjust="spacing" textLength="126.998" x="263.95" y="355.3726">description : TEXT</text></g><!--class Transactions--><g class="entity" data-entity="Transactions" data-source-line="39" data-uid="ent0005" id="entity_Transactions"><rect fill="#FFFFFF" height="145.7813" rx="2.5" ry="2.5" style="stroke:#000000;stroke-width:0.5;" width="239.1035" x="122.34" y="454.6769"/><ellipse cx="192.9211" cy="470.6769" fill="#ADD1B2" rx="11" ry="11" style="stroke:#181818;stroke-width:1;"/><path d="M195.8898,476.3175 Q195.3117,476.6144 194.6711,476.755 Q194.0304,476.9113 193.3273,476.9113 Q190.8273,476.9113 189.4992,475.2706 Q188.1867,473.6144 188.1867,470.4894 Q188.1867,467.3644 189.4992,465.7081 Q190.8273,464.0519 193.3273,464.0519 Q194.0304,464.0519 194.6711,464.2081 Q195.3273,464.3644 195.8898,464.6613 L195.8898,467.38 Q195.2648,466.8019 194.6711,466.5363 Q194.0773,466.255 193.4523,466.255 Q192.1086,466.255 191.4211,467.3331 Q190.7336,468.3956 190.7336,470.4894 Q190.7336,472.5831 191.4211,473.6613 Q192.1086,474.7238 193.4523,474.7238 Q194.0773,474.7238 194.6711,474.4581 Q195.2648,474.1769 195.8898,473.5988 L195.8898,476.3175 Z " fill="#000000"/><text fill="#000000" font-family="sans-serif" font-size="14" lengthAdjust="spacing" textLength="89.4414" x="213.4211" y="475.5236">Transactions</text><line style="stroke:#000000;stroke-width:0.5;" x1="123.34" x2="360.4435" y1="486.6769" y2="486.6769"/><ellipse cx="133.34" cy="500.3253" fill="#000000" rx="3" ry="3" style="stroke:#000000;stroke-width:1;"/><text fill="#000000" font-family="sans-serif" font-size="14" lengthAdjust="spacing" textLength="213.1035" x="142.34" y="503.672">transaction_id : INTEGER &#171;PK&#187;</text><line style="stroke:#000000;stroke-width:1;" x1="123.34" x2="360.4435" y1="510.9738" y2="510.9738"/><text fill="#000000" font-family="sans-serif" font-size="14" lengthAdjust="spacing" textLength="103.585" x="128.34" y="527.9689">amount : REAL</text><text fill="#000000" font-family="sans-serif" font-size="14" lengthAdjust="spacing" textLength="126.998" x="128.34" y="544.2657">description : TEXT</text><text fill="#000000" font-family="sans-serif" font-size="14" lengthAdjust="spacing" textLength="82.9404" x="128.34" y="560.5626">date : DATE</text><text fill="#000000" font-family="sans-serif" font-size="14" lengthAdjust="spacing" textLength="189.4033" x="128.34" y="576.8595">account_id : INTEGER &#171;FK&#187;</text><text fill="#000000" font-family="sans-serif" font-size="14" lengthAdjust="spacing" textLength="195.501" x="128.34" y="593.1564">category_id : INTEGER &#171;FK&#187;</text></g><!--link Users to Accounts--><g class="link" data-entity-1="Users" data-entity-2="Accounts" data-source-line="50" data-uid="lnk6" id="link_Users_Accounts"><path codeLine="50" d="M114.9,157.9569 C114.9,186.3769 114.9,220.8069 114.9,249.2069" fill="none" id="Users-Accounts" style="stroke:#000000;stroke-width:1;"/><text fill="#000000" font-family="sans-serif" font-size="13" lengthAdjust="spacing" textLength="41.8247" x="208.6646" y="200.5538">&#1080;&#1084;&#1077;&#1077;&#1090;</text><text fill="#000000" font-family="sans-serif" font-size="13" lengthAdjust="spacing" textLength="227.354" x="115.9" y="215.6866">(1 &#1087;&#1086;&#1083;&#1100;&#1079;&#1086;&#1074;&#1072;&#1090;&#1077;&#1083;&#1100; &#8594; &#1084;&#1085;&#1086;&#1075;&#1086; &#1089;&#1095;&#1077;&#1090;&#1086;&#1074;)</text><text fill="#000000" font-family="sans-serif" font-size="13" lengthAdjust="spacing" textLength="8.271" x="106.4535" y="177.4969">1</text><text fill="#000000" font-family="sans-serif" font-size="13" lengthAdjust="spacing" textLength="10.8291" x="104.3416" y="238.4363">&#8734;</text></g><!--link Accounts to Transactions--><g class="link" data-entity-1="Accounts" data-entity-2="Transactions" data-source-line="51" data-uid="lnk7" id="link_Accounts_Transactions"><path codeLine="51" d="M111.72,363.0269 C112.68,383.3669 116.35,405.9569 125.9,424.6769 C131.26,435.1769 138.2,445.0869 146.02,454.2869" fill="none" id="Accounts-Transactions" style="stroke:#000000;stroke-width:1;"/><text fill="#000000" font-family="sans-serif" font-size="13" lengthAdjust="spacing" textLength="68.0723" x="191.8873" y="405.7438">&#1089;&#1086;&#1076;&#1077;&#1088;&#1078;&#1080;&#1090;</text><text fill="#000000" font-family="sans-serif" font-size="13" lengthAdjust="spacing" textLength="198.0469" x="126.9" y="420.8766">(1 &#1089;&#1095;&#1077;&#1090; &#8594; &#1084;&#1085;&#1086;&#1075;&#1086; &#1090;&#1088;&#1072;&#1085;&#1079;&#1072;&#1082;&#1094;&#1080;&#1081;)</text><text fill="#000000" font-family="sans-serif" font-size="13" lengthAdjust="spacing" textLength="8.271" x="102.9059" y="382.553">1</text><text fill="#000000" font-family="sans-serif" font-size="13" lengthAdjust="spacing" textLength="10.8291" x="126.4452" y="443.6607">&#8734;</text></g><!--link Categories to Transactions--><g class="link" data-entity-1="Categories" data-entity-2="Transactions" data-source-line="52" data-uid="lnk8" id="link_Categories_Transactions"><path codeLine="52" d="M355.2,363.1269 C349.04,383.2769 340.67,405.6869 329.9,424.6769 C324.18,434.7369 317.39,444.7169 310.15,454.2669" fill="none" id="Categories-Transactions" style="stroke:#000000;stroke-width:1;"/><text fill="#000000" font-family="sans-serif" font-size="13" lengthAdjust="spacing" textLength="115.248" x="406.4469" y="405.7438">&#1082;&#1083;&#1072;&#1089;&#1089;&#1080;&#1092;&#1080;&#1094;&#1080;&#1088;&#1091;&#1077;&#1090;</text><text fill="#000000" font-family="sans-serif" font-size="13" lengthAdjust="spacing" textLength="238.3418" x="344.9" y="420.8766">(1 &#1082;&#1072;&#1090;&#1077;&#1075;&#1086;&#1088;&#1080;&#1103; &#8594; &#1084;&#1085;&#1086;&#1075;&#1086; &#1090;&#1088;&#1072;&#1085;&#1079;&#1072;&#1082;&#1094;&#1080;&#1081;)</text><text fill="#000000" font-family="sans-serif" font-size="13" lengthAdjust="spacing" textLength="8.271" x="345.1696" y="382.6646">1</text><text fill="#000000" font-family="sans-serif" font-size="13" lengthAdjust="spacing" textLength="10.8291" x="306.2188" y="443.6388">&#8734;</text></g><!--SRC=[ZLHVQzDG57_FfpZsHIViOQzzo-BTB7PfILFqGHZNv3h3qgJSPCWGeQqo1GL1V1Fy0huKjshMcWdx1FT-XNuIpqsQfUtQiWH2pk_y-vsJ-yizbxtq0WOMCMpTtAyJS7mQHPeMUx7FW5ZRua8aOYZEPG-VV_4UmhJt3SHtaSWF8fMVn2N8znYJeZ-LVN4bVcKWXeuG7661ts8aUveM7Nj1btBQoPl06mtmsgNEyH4FJmBN2FsGmzDNNimoZyvv-3e7TtsCoiD3xZ8-ZxxLjFkmVND1kqMirXoWbSEr8yRplW_X1DyFFHUgK3DjiayikFxPV78zGIVcGEOFQ8TXW4sUsOYm3lNyqdGuep5p3sciiDe1QTdwGVCM7Tqm6ctJNiD8TnmSFIv8qTpSn6kHqmlgqy1HW4Nq-epsSlgUIb_cPUZeRbWrieQPWSCTXTnZ1JSd1qxlJYu-xSvPBeiSxdLZBmmAS9cJRUbcIpViMiDSmyhcD8YeeueKlE8IsaIDTjHcoqMje8CWpeZM8zoDIbdzDVRogklsiNBR5gdhsLYFQys5qV8ZMTcf80YLwSSVbV9CL05rfMGqaeFdmOCT4FzGNXFvMVnHCXD3EK0dsZ0z-we4bo9yBgv0zb6RcAIYjhIRUWjT5ZPPXKov5qgeADTarg-eSwl-8FiTfCXZACRo36bURcbp9sPJ9p4M4wJUnuw9-dEeTDcJxyefnxF9i1NsIUINE_N_3m00]--></g></svg>