<svg xmlns="http://www.w3.org/2000/svg" xmlns:xlink="http://www.w3.org/1999/xlink" contentStyleType="text/css" data-diagram-type="CLASS" height="593px" preserveAspectRatio="none" style="width:858px;height:593px;background:#FFFFFF;" version="1.1" viewBox="0 0 858 593" width="858px" zoomAndPan="magnify"><title>ER-&#1076;&#1080;&#1072;&#1075;&#1088;&#1072;&#1084;&#1084;&#1072; &#8212; &#1051;&#1080;&#1095;&#1085;&#1099;&#1081; &#1092;&#1080;&#1085;&#1072;&#1085;&#1089;&#1086;&#1074;&#1099;&#1081; &#1084;&#1077;&#1085;&#1077;&#1076;&#1078;&#1077;&#1088;</title><defs/><g><g class="title" data-source-line="1"><text fill="#000000" font-family="sans-serif" font-size="14" font-weight="bold" lengthAdjust="spacing" textLength="399.123" x="222.8588" y="22.9951">ER-&#1076;&#1080;&#1072;&#1075;&#1088;&#1072;&#1084;&#1084;&#1072; &#8212; &#1051;&#1080;&#1095;&#1085;&#1099;&#1081; &#1092;&#1080;&#1085;&#1072;&#1085;&#1089;&#1086;&#1074;&#1099;&#1081; &#1084;&#1077;&#1085;&#1077;&#1076;&#1078;&#1077;&#1088;</text></g><!--class Users--><g class="entity" data-entity="Users" data-source-line="3" data-uid="ent0002" id="entity_Users"><rect fill="#F1F1F1" height="113.1875" rx="2.5" ry="2.5" style="stroke:#181818;stroke-width:0.5;" width="190.5547" x="125.62" y="44.2969"/><ellipse cx="140.6332" cy="60.2969" fill="#ADD1B2" rx="11" ry="11" style="stroke:#181818;stroke-width:1;"/><path d="M144.7426,66.2969 L137.0238,66.2969 L137.0238,53.9063 L144.7426,53.9063 L144.7426,56.0625 L139.4769,56.0625 L139.4769,58.7344 L144.2426,58.7344 L144.2426,60.8906 L139.4769,60.8906 L139.4769,64.1406 L144.7426,64.1406 L144.7426,66.2969 Z " fill="#000000"/><text fill="#000000" font-family="sans-serif" font-size="14" lengthAdjust="spacing" textLength="158.5254" x="154.6361" y="65.1436">&#1055;&#1086;&#1083;&#1100;&#1079;&#1086;&#1074;&#1072;&#1090;&#1077;&#1083;&#1080; (Users)</text><line style="stroke:#181818;stroke-width:0.5;" x1="126.62" x2="315.1747" y1="76.2969" y2="76.2969"/><ellipse cx="136.62" cy="89.9453" fill="#000000" rx="3" ry="3" style="stroke:#000000;stroke-width:1;"/><text fill="#000000" font-family="sans-serif" font-size="14" lengthAdjust="spacing" textLength="164.5547" x="145.62" y="93.292">user_id : INTEGER &#171;PK&#187;</text><line style="stroke:#181818;stroke-width:1;" x1="126.62" x2="315.1747" y1="100.5938" y2="100.5938"/><text fill="#000000" font-family="sans-serif" font-size="14" lengthAdjust="spacing" textLength="119.3965" x="131.62" y="117.5889">username : TEXT</text><text fill="#000000" font-family="sans-serif" font-size="14" lengthAdjust="spacing" textLength="87.7666" x="131.62" y="133.8857">email : TEXT</text><text fill="#000000" font-family="sans-serif" font-size="14" lengthAdjust="spacing" textLength="169.4629" x="131.62" y="150.1826">created_at : TIMESTAMP</text></g><!--class Accounts--><g class="entity" data-entity="Accounts" data-source-line="11" data-uid="ent0003" id="entity_Accounts"><rect fill="#F1F1F1" height="113.1875" rx="2.5" ry="2.5" style="stroke:#181818;stroke-width:0.5;" width="215.793" x="7" y="234.4769"/><ellipse cx="49.4311" cy="250.4769" fill="#ADD1B2" rx="11" ry="11" style="stroke:#181818;stroke-width:1;"/><path d="M53.5405,256.4769 L45.8217,256.4769 L45.8217,244.0863 L53.5405,244.0863 L53.5405,246.2425 L48.2749,246.2425 L48.2749,248.9144 L53.0405,248.9144 L53.0405,251.0706 L48.2749,251.0706 L48.2749,254.3206 L53.5405,254.3206 L53.5405,256.4769 Z " fill="#000000"/><text fill="#000000" font-family="sans-serif" font-size="14" lengthAdjust="spacing" textLength="122.835" x="69.5269" y="255.3236">&#1057;&#1095;&#1077;&#1090;&#1072; (Accounts)</text><line style="stroke:#181818;stroke-width:0.5;" x1="8" x2="221.793" y1="266.4769" y2="266.4769"/><ellipse cx="18" cy="280.1253" fill="#000000" rx="3" ry="3" style="stroke:#000000;stroke-width:1;"/><text fill="#000000" font-family="sans-serif" font-size="14" lengthAdjust="spacing" textLength="189.793" x="27" y="283.472">account_id : INTEGER &#171;PK&#187;</text><line style="stroke:#181818;stroke-width:1;" x1="8" x2="221.793" y1="290.7738" y2="290.7738"/><text fill="#000000" font-family="sans-serif" font-size="14" lengthAdjust="spacing" textLength="88.8604" x="13" y="307.7689">name : TEXT</text><text fill="#000000" font-family="sans-serif" font-size="14" lengthAdjust="spacing" textLength="104.6855" x="13" y="324.0657">balance : REAL</text><text fill="#000000" font-family="sans-serif" font-size="14" lengthAdjust="spacing" textLength="164.165" x="13" y="340.3626">user_id : INTEGER &#171;FK&#187;</text></g><!--class Categories--><g class="entity" data-entity="Categories" data-source-line="19" data-uid="ent0004" id="entity_Categories"><rect fill="#F1F1F1" height="113.1875" rx="2.5" ry="2.5" style="stroke:#181818;stroke-width:0.5;" width="221.8906" x="629.95" y="234.4769"/><ellipse cx="654.2932" cy="250.4769" fill="#ADD1B2" rx="11" ry="11" style="stroke:#181818;stroke-width:1;"/><path d="M658.4026,256.4769 L650.6838,256.4769 L650.6838,244.0863 L658.4026,244.0863 L658.4026,246.2425 L653.137,246.2425 L653.137,248.9144 L657.9026,248.9144 L657.9026,251.0706 L653.137,251.0706 L653.137,254.3206 L658.4026,254.3206 L658.4026,256.4769 Z " fill="#000000"/><text fill="#000000" font-family="sans-serif" font-size="14" lengthAdjust="spacing" textLength="169.1279" x="670.3695" y="255.3236">&#1050;&#1072;&#1090;&#1077;&#1075;&#1086;&#1088;&#1080;&#1080; (Categories)</text><line style="stroke:#181818;stroke-width:0.5;" x1="630.95" x2="850.8406" y1="266.4769" y2="266.4769"/><ellipse cx="640.95" cy="280.1253" fill="#000000" rx="3" ry="3" style="stroke:#000000;stroke-width:1;"/><text fill="#000000" font-family="sans-serif" font-size="14" lengthAdjust="spacing" textLength="195.8906" x="649.95" y="283.472">category_id : INTEGER &#171;PK&#187;</text><line style="stroke:#181818;stroke-width:1;" x1="630.95" x2="850.8406" y1="290.7738" y2="290.7738"/><text fill="#000000" font-family="sans-serif" font-size="14" lengthAdjust="spacing" textLength="88.8604" x="635.95" y="307.7689">name : TEXT</text><text fill="#000000" font-family="sans-serif" font-size="14" lengthAdjust="spacing" textLength="80.4316" x="635.95" y="324.0657">type : TEXT</text><text fill="#000000" font-family="sans-serif" font-size="14" lengthAdjust="spacing" textLength="126.998" x="635.95" y="340.3626">description : TEXT</text></g><!--class Transactions--><g class="entity" data-entity="Transactions" data-source-line="27" data-uid="ent0005" id="entity_Transactions"><rect fill="#F1F1F1" height="162.0781" rx="2.5" ry="2.5" style="stroke:#181818;stroke-width:0.5;" width="239.1035" x="222.34" y="424.6669"/><ellipse cx="244.05" cy="440.6669" fill="#ADD1B2" rx="11" ry="11" style="stroke:#181818;stroke-width:1;"/><path d="M248.1594,446.6669 L240.4406,446.6669 L240.4406,434.2763 L248.1594,434.2763 L248.1594,436.4325 L242.8938,436.4325 L242.8938,439.1044 L247.6594,439.1044 L247.6594,441.2606 L242.8938,441.2606 L242.8938,444.5106 L248.1594,444.5106 L248.1594,446.6669 Z " fill="#000000"/><text fill="#000000" font-family="sans-serif" font-size="14" lengthAdjust="spacing" textLength="192.1924" x="259.5411" y="445.5136">&#1058;&#1088;&#1072;&#1085;&#1079;&#1072;&#1082;&#1094;&#1080;&#1080; (Transactions)</text><line style="stroke:#181818;stroke-width:0.5;" x1="223.34" x2="460.4435" y1="456.6669" y2="456.6669"/><ellipse cx="233.34" cy="470.3153" fill="#000000" rx="3" ry="3" style="stroke:#000000;stroke-width:1;"/><text fill="#000000" font-family="sans-serif" font-size="14" lengthAdjust="spacing" textLength="213.1035" x="242.34" y="473.662">transaction_id : INTEGER &#171;PK&#187;</text><line style="stroke:#181818;stroke-width:1;" x1="223.34" x2="460.4435" y1="480.9638" y2="480.9638"/><text fill="#000000" font-family="sans-serif" font-size="14" lengthAdjust="spacing" textLength="103.585" x="228.34" y="497.9589">amount : REAL</text><text fill="#000000" font-family="sans-serif" font-size="14" lengthAdjust="spacing" textLength="126.998" x="228.34" y="514.2557">description : TEXT</text><text fill="#000000" font-family="sans-serif" font-size="14" lengthAdjust="spacing" textLength="82.9404" x="228.34" y="530.5526">date : DATE</text><text fill="#000000" font-family="sans-serif" font-size="14" lengthAdjust="spacing" textLength="164.165" x="228.34" y="546.8495">user_id : INTEGER &#171;FK&#187;</text><text fill="#000000" font-family="sans-serif" font-size="14" lengthAdjust="spacing" textLength="195.501" x="228.34" y="563.1464">category_id : INTEGER &#171;FK&#187;</text><text fill="#000000" font-family="sans-serif" font-size="14" lengthAdjust="spacing" textLength="189.4033" x="228.34" y="579.4432">account_id : INTEGER &#171;FK&#187;</text></g><!--link Users to Accounts--><g class="link" data-entity-1="Users" data-entity-2="Accounts" data-source-line="39" data-uid="lnk6" id="link_Users_Accounts"><path codeLine="39" d="M119.1624,158.0011 C107.8224,168.0111 103.83,174.2769 96.9,187.4769 C89.46,201.6569 85.9525,200.6047 88.9425,216.3047" fill="none" id="Users-Accounts" style="stroke:#181818;stroke-width:1;"/><line style="stroke:#181818;stroke-width:1;" x1="119.5141" x2="124.8083" y1="152.3552" y2="158.3528"/><line style="stroke:#181818;stroke-width:1;" x1="117.265" x2="122.5592" y1="154.3405" y2="160.3381"/><line style="stroke:#181818;stroke-width:1;" x1="119.1624" x2="125.16" y1="158.0011" y2="152.7069"/><line style="stroke:#181818;stroke-width:1;" x1="90.8133" x2="98.2041" y1="226.1281" y2="232.8644"/><line style="stroke:#181818;stroke-width:1;" x1="90.8133" x2="86.4159" y1="226.1281" y2="235.1094"/><line style="stroke:#181818;stroke-width:1;" x1="90.8133" x2="92.31" y1="226.1281" y2="233.9869"/><ellipse cx="89.6908" cy="220.2341" fill="none" rx="4" ry="4" style="stroke:#181818;stroke-width:1;"/><text fill="#000000" font-family="sans-serif" font-size="13" lengthAdjust="spacing" textLength="217.2104" x="97.9" y="200.5438">1 &#1087;&#1086;&#1083;&#1100;&#1079;&#1086;&#1074;&#1072;&#1090;&#1077;&#1083;&#1100; &#8594; &#1084;&#1085;&#1086;&#1075;&#1086; &#1089;&#1095;&#1077;&#1090;&#1086;&#1074;</text></g><!--link Users to Transactions--><g class="link" data-entity-1="Users" data-entity-2="Transactions" data-source-line="40" data-uid="lnk7" id="link_Users_Transactions"><path codeLine="40" d="M304.4123,163.8281 C312.6623,172.8081 314.56,176.8069 319.9,187.4769 C356.86,261.4269 359.5387,339.4637 354.2087,406.4037" fill="none" id="Users-Transactions" style="stroke:#181818;stroke-width:1;"/><line style="stroke:#181818;stroke-width:1;" x1="298.7605" x2="304.6518" y1="163.5887" y2="158.1763"/><line style="stroke:#181818;stroke-width:1;" x1="300.7902" x2="306.6814" y1="165.7979" y2="160.3855"/><line style="stroke:#181818;stroke-width:1;" x1="304.4123" x2="299" y1="163.8281" y2="157.9369"/><line style="stroke:#181818;stroke-width:1;" x1="353.415" x2="358.7611" y1="416.3721" y2="424.8231"/><line style="stroke:#181818;stroke-width:1;" x1="353.415" x2="346.7989" y1="416.3721" y2="423.8706"/><line style="stroke:#181818;stroke-width:1;" x1="353.415" x2="352.78" y1="416.3721" y2="424.3469"/><ellipse cx="353.8912" cy="410.391" fill="none" rx="4" ry="4" style="stroke:#181818;stroke-width:1;"/><text fill="#000000" font-family="sans-serif" font-size="13" lengthAdjust="spacing" textLength="251.9639" x="355.9" y="295.6438">1 &#1087;&#1086;&#1083;&#1100;&#1079;&#1086;&#1074;&#1072;&#1090;&#1077;&#1083;&#1100; &#8594; &#1084;&#1085;&#1086;&#1075;&#1086; &#1090;&#1088;&#1072;&#1085;&#1079;&#1072;&#1082;&#1094;&#1080;&#1081;</text></g><!--link Accounts to Transactions--><g class="link" data-entity-1="Accounts" data-entity-2="Transactions" data-source-line="41" data-uid="lnk8" id="link_Accounts_Transactions"><path codeLine="41" d="M112.5513,355.9915 C114.0813,372.2115 117.54,381.1969 126.9,394.6669 C149.92,427.8169 169.6937,444.0171 205.7937,460.7771" fill="none" id="Accounts-Transactions" style="stroke:#181818;stroke-width:1;"/><line style="stroke:#181818;stroke-width:1;" x1="108.1933" x2="116.158" y1="352.3848" y2="351.6336"/><line style="stroke:#181818;stroke-width:1;" x1="108.4751" x2="116.4397" y1="355.3716" y2="354.6203"/><line style="stroke:#181818;stroke-width:1;" x1="112.5513" x2="111.8" y1="355.9915" y2="348.0269"/><line style="stroke:#181818;stroke-width:1;" x1="214.8639" x2="224.6466" y1="464.9881" y2="462.9148"/><line style="stroke:#181818;stroke-width:1;" x1="214.8639" x2="219.5934" y1="464.9881" y2="473.799"/><line style="stroke:#181818;stroke-width:1;" x1="214.8639" x2="222.12" y1="464.9881" y2="468.3569"/><ellipse cx="209.4218" cy="462.4615" fill="none" rx="4" ry="4" style="stroke:#181818;stroke-width:1;"/><text fill="#000000" font-family="sans-serif" font-size="13" lengthAdjust="spacing" textLength="187.9033" x="127.9" y="390.7338">1 &#1089;&#1095;&#1105;&#1090; &#8594; &#1084;&#1085;&#1086;&#1075;&#1086; &#1090;&#1088;&#1072;&#1085;&#1079;&#1072;&#1082;&#1094;&#1080;&#1081;</text></g><!--link Categories to Transactions--><g class="link" data-entity-1="Categories" data-entity-2="Transactions" data-source-line="42" data-uid="lnk9" id="link_Categories_Transactions"><path codeLine="42" d="M628.7403,351.8399 C575.2903,380.3299 533.0355,402.8522 477.6355,432.3722" fill="none" id="Categories-Transactions" style="stroke:#181818;stroke-width:1;"/><line style="stroke:#181818;stroke-width:1;" x1="630.3886" x2="634.1516" y1="346.4285" y2="353.4882"/><line style="stroke:#181818;stroke-width:1;" x1="627.7412" x2="631.5042" y1="347.8396" y2="354.8994"/><line style="stroke:#181818;stroke-width:1;" x1="628.7403" x2="635.8" y1="351.8399" y2="348.0769"/><line style="stroke:#181818;stroke-width:1;" x1="468.8102" x2="464.5715" y1="437.0748" y2="446.1321"/><line style="stroke:#181818;stroke-width:1;" x1="468.8102" x2="458.9285" y1="437.0748" y2="435.5417"/><line style="stroke:#181818;stroke-width:1;" x1="468.8102" x2="461.75" y1="437.0748" y2="440.8369"/><ellipse cx="474.1054" cy="434.2533" fill="none" rx="4" ry="4" style="stroke:#181818;stroke-width:1;"/><text fill="#000000" font-family="sans-serif" font-size="13" lengthAdjust="spacing" textLength="228.1982" x="577.9" y="390.7338">1 &#1082;&#1072;&#1090;&#1077;&#1075;&#1086;&#1088;&#1080;&#1103; &#8594; &#1084;&#1085;&#1086;&#1075;&#1086; &#1090;&#1088;&#1072;&#1085;&#1079;&#1072;&#1082;&#1094;&#1080;&#1081;</text></g><!--SRC=[bPFDJjj04CVlVegHBq0b7xWYX1Irfa9y2AMkr1jQd1Mob3Z8NWuH88MqeWUGKAkUu52L9x20K1CmlCBCA_0ap6uSnm72XoFPcV-Enx-T-QyAL5s2MtNm0bDCy9pQVB_XNmBtxJ-09vZIJype0A-0Vd1EnkiPxU4jdXcHKxiiThd09NQfRLaoL85gWOr_EUcQ3l6_JiQ4EfnrZIbCVerb54_P868mVs7R0hu-m1P7Qq4DPc1XnNC_krMOdLrTd9ipouvZ7Zed50t9IPxxpJEQR8YWNXRyI0ebQsj2QNLXsVtYLPPNhTqItJ_ULvUP4fYi-7vpArGvqY0gg4HVU0tiCTIwg8lGrrBLhImLx8_BpEioPR3Zl5NdUClJI7N3Fl9cDffH87F4OLn0-dsfzLvArTeSYMiozgDWKmNDS22NuKwDGJAUQO8zsk_ZUP48O-7hTtB0ib8Wgg7u6gLew8wNM_SCbv5vsnn_gdZkonqshXZJeo9XpAG78vfWF0VO_6Tqn1tWdUCTU_k2xoch-c0SW3uXG6twJdkizNZzPag_P_MjlhFZECtjeSbcm9u6K-R9KQ53kD__hKzOnZBRWJ-TcvQpxD628nr_Nz7EavbUsLO1EBQ-Xg5Vr7bRlP9bnnFtHgrFHs-g_G00]--></g></svg>